<svg width="48" height="44" viewBox="0 0 48 44" fill="none" xmlns="http://www.w3.org/2000/svg">
<path d="M1.23412 28.3747L7.68412 18.3247C8.13412 17.6497 9.10912 17.4247 9.78412 17.8747L14.2841 20.7247C14.9591 21.1747 15.1841 22.1497 14.7341 22.8247L8.28412 32.8747C7.83412 33.5497 6.85912 33.7747 6.18412 33.3247L1.68412 30.4747C1.00912 30.0247 0.784117 29.1247 1.23412 28.3747Z" stroke="#BF6128" stroke-width="2" stroke-miterlimit="10" stroke-linecap="round" stroke-linejoin="round"/>
<path d="M24.3352 28.5254L31.9852 33.1754C32.5852 33.5504 32.7352 34.3004 32.3602 34.9004L31.7602 35.8004C31.3852 36.3254 30.7102 36.5504 30.1102 36.1754L21.4102 31.2254" stroke="#BF6128" stroke-width="2" stroke-miterlimit="10" stroke-linecap="round" stroke-linejoin="round"/>
<path d="M23.8109 24.4746L14.2109 23.7246" stroke="#BF6128" stroke-width="2" stroke-miterlimit="10" stroke-linecap="round" stroke-linejoin="round"/>
<path d="M20.8086 35.4248L26.1336 38.4998C27.1086 39.0998 28.4586 38.7998 29.0586 37.8248L30.1086 36.1748" stroke="#BF6128" stroke-width="2" stroke-miterlimit="10" stroke-linecap="round" stroke-linejoin="round"/>
<path d="M18.9336 38.4248L23.1336 40.8998C23.9586 41.3498 25.0086 41.1248 25.5336 40.2998L26.5086 38.7248" stroke="#BF6128" stroke-width="2" stroke-miterlimit="10" stroke-linecap="round" stroke-linejoin="round"/>
<path d="M8.28516 32.875L9.33516 34.825C10.0102 36.025 10.9852 37.075 12.1852 37.825L18.4852 41.875C19.6852 42.625 21.3352 42.325 22.1602 41.05L22.4602 40.6" stroke="#BF6128" stroke-width="2" stroke-miterlimit="10" stroke-linecap="round" stroke-linejoin="round"/>
<path d="M46.3826 28.4499L39.9326 18.3999C39.4826 17.7249 38.5076 17.4999 37.8326 17.9499L33.3326 20.7999C32.6576 21.2499 32.4326 22.2249 32.8826 22.8999L39.3326 32.9499C39.7826 33.6249 40.7576 33.8499 41.4326 33.3999L45.9326 30.5499C46.6076 30.0999 46.8326 29.1999 46.3826 28.4499Z" stroke="#BF6128" stroke-width="2" stroke-miterlimit="10" stroke-linecap="round" stroke-linejoin="round"/>
<path d="M33.4092 23.7998L23.8092 24.4748C23.8092 24.4748 19.7592 24.3998 19.5342 26.3498C19.3092 28.2998 22.6842 27.6248 24.2592 28.5248" stroke="#BF6128" stroke-width="2" stroke-miterlimit="10" stroke-linecap="round" stroke-linejoin="round"/>
<path d="M39.3359 33.0254L38.2859 34.9754C37.6109 36.1754 36.6359 37.2254 35.4359 37.9754L28.9859 41.6504C26.5859 42.7004 24.7859 42.4004 23.9609 41.2004" stroke="#BF6128" stroke-width="2" stroke-miterlimit="10" stroke-linecap="round" stroke-linejoin="round"/>
<path d="M25.9844 29.5C25.9844 29.5 30.7844 31.675 33.0344 29.875" stroke="#BF6128" stroke-width="2" stroke-miterlimit="10" stroke-linecap="round" stroke-linejoin="round"/>
<path d="M11.8086 16.3V1H35.8836V16.3" stroke="#BF6128" stroke-width="2" stroke-miterlimit="10" stroke-linecap="round" stroke-linejoin="round"/>
<path d="M20.8086 6.47539L23.1336 8.72539L27.3336 4.52539" stroke="#BF6128" stroke-width="2" stroke-miterlimit="10" stroke-linecap="round" stroke-linejoin="round"/>
<path d="M14.9609 11.875H32.6609" stroke="#BF6128" stroke-width="2" stroke-miterlimit="10" stroke-linecap="round" stroke-linejoin="round"/>
<path d="M19.0078 16.9746H28.6828" stroke="#BF6128" stroke-width="2" stroke-miterlimit="10" stroke-linecap="round" stroke-linejoin="round"/>
</svg>
