<svg width="42" height="44" viewBox="0 0 42 44" fill="none" xmlns="http://www.w3.org/2000/svg">
<path d="M29.875 22.7502L34.075 25.5252C35.875 26.7252 37.075 28.9752 37.075 31.3752V42.1752H17.5V31.3752C17.5 28.9752 18.625 26.7252 20.5 25.5252L24.7 22.7502C25.225 22.3752 25.225 21.5502 24.7 21.2502L20.5 18.4752C18.7 17.2752 17.5 15.0252 17.5 12.6252V1.8252H37.075V12.6252C37.075 15.0252 35.95 17.2752 34.075 18.4752L29.875 21.2502C29.35 21.5502 29.35 22.4502 29.875 22.7502Z" stroke="#BF6128" stroke-width="2" stroke-miterlimit="10" stroke-linecap="round" stroke-linejoin="round"/>
<path d="M13.6016 1.8252H40.9016" stroke="#BF6128" stroke-width="2" stroke-miterlimit="10" stroke-linecap="round" stroke-linejoin="round"/>
<path d="M13.6016 42.1748H40.9016" stroke="#BF6128" stroke-width="2" stroke-miterlimit="10" stroke-linecap="round" stroke-linejoin="round"/>
<path d="M4.22656 7.2998H14.4266" stroke="#BF6128" stroke-width="2" stroke-miterlimit="10" stroke-linecap="round" stroke-linejoin="round"/>
<path d="M1 17.125H15.325" stroke="#BF6128" stroke-width="2" stroke-miterlimit="10" stroke-linecap="round" stroke-linejoin="round"/>
<path d="M6.55078 22H19.0758" stroke="#BF6128" stroke-width="2" stroke-miterlimit="10" stroke-linecap="round" stroke-linejoin="round"/>
<path d="M8.5 12.25H14.425" stroke="#BF6128" stroke-width="2" stroke-miterlimit="10" stroke-linecap="round" stroke-linejoin="round"/>
<path d="M4.22656 36.7002H14.4266" stroke="#BF6128" stroke-width="2" stroke-miterlimit="10" stroke-linecap="round" stroke-linejoin="round"/>
<path d="M1 26.875H15.325" stroke="#BF6128" stroke-width="2" stroke-miterlimit="10" stroke-linecap="round" stroke-linejoin="round"/>
<path d="M8.5 31.75H14.425" stroke="#BF6128" stroke-width="2" stroke-miterlimit="10" stroke-linecap="round" stroke-linejoin="round"/>
</svg>
