<svg width="40" height="46" viewBox="0 0 40 46" fill="none" xmlns="http://www.w3.org/2000/svg">
<path d="M11.5227 20.75C16.2447 20.75 20.0727 19.4069 20.0727 17.75C20.0727 16.0931 16.2447 14.75 11.5227 14.75C6.80062 14.75 2.97266 16.0931 2.97266 17.75C2.97266 19.4069 6.80062 20.75 11.5227 20.75Z" stroke="#BF6128" stroke-width="2" stroke-miterlimit="10" stroke-linecap="round" stroke-linejoin="round"/>
<path d="M2.97266 17.75V23.825C2.97266 25.475 6.79766 26.825 11.5227 26.825C16.2477 26.825 20.0727 25.475 20.0727 23.825V17.75" stroke="#BF6128" stroke-width="2" stroke-miterlimit="10" stroke-linecap="round" stroke-linejoin="round"/>
<path d="M2.97266 23.75C2.97266 23.825 2.97266 23.9 2.97266 23.9C3.19766 25.475 6.94766 26.75 11.5227 26.75C16.0977 26.75 19.8477 25.475 20.0727 23.9V23.825V23.75" stroke="#BF6128" stroke-width="2" stroke-miterlimit="10" stroke-linecap="round" stroke-linejoin="round"/>
<path d="M2.97266 23.75V29.825C2.97266 31.475 6.79766 32.825 11.5227 32.825C16.2477 32.825 20.0727 31.475 20.0727 29.825V23.75" stroke="#BF6128" stroke-width="2" stroke-miterlimit="10" stroke-linecap="round" stroke-linejoin="round"/>
<path d="M2.97266 29.8242V35.8992C2.97266 37.5492 6.79766 38.8992 11.5227 38.8992C16.2477 38.8992 20.0727 37.5492 20.0727 35.8992V29.8242" stroke="#BF6128" stroke-width="2" stroke-miterlimit="10" stroke-linecap="round" stroke-linejoin="round"/>
<path d="M2.97266 35.8242V41.8992C2.97266 43.5492 6.79766 44.8992 11.5227 44.8992C16.2477 44.8992 20.0727 43.5492 20.0727 41.8992V35.8242" stroke="#BF6128" stroke-width="2" stroke-miterlimit="10" stroke-linecap="round" stroke-linejoin="round"/>
<path d="M2.97266 17.75V23.825C2.97266 25.475 6.79766 26.825 11.5227 26.825C16.2477 26.825 20.0727 25.475 20.0727 23.825V17.75" stroke="#BF6128" stroke-width="2" stroke-miterlimit="10" stroke-linecap="round" stroke-linejoin="round"/>
<path d="M28.6984 26.75C33.4205 26.75 37.2484 25.4069 37.2484 23.75C37.2484 22.0931 33.4205 20.75 28.6984 20.75C23.9764 20.75 20.1484 22.0931 20.1484 23.75C20.1484 25.4069 23.9764 26.75 28.6984 26.75Z" stroke="#BF6128" stroke-width="2" stroke-miterlimit="10" stroke-linecap="round" stroke-linejoin="round"/>
<path d="M20.0742 23.75V29.825C20.0742 31.475 23.8992 32.825 28.6242 32.825C33.3492 32.825 37.1742 31.475 37.1742 29.825V23.75" stroke="#BF6128" stroke-width="2" stroke-miterlimit="10" stroke-linecap="round" stroke-linejoin="round"/>
<path d="M20.0742 29.8242V35.8992C20.0742 37.5492 23.8992 38.8992 28.6242 38.8992C33.3492 38.8992 37.1742 37.5492 37.1742 35.8992V29.8242" stroke="#BF6128" stroke-width="2" stroke-miterlimit="10" stroke-linecap="round" stroke-linejoin="round"/>
<path d="M20.0742 35.8242V41.8992C20.0742 43.5492 23.8992 44.8992 28.6242 44.8992C33.3492 44.8992 37.1742 43.5492 37.1742 41.8992V35.8242" stroke="#BF6128" stroke-width="2" stroke-miterlimit="10" stroke-linecap="round" stroke-linejoin="round"/>
<path d="M38.2234 11.5246C38.2234 11.5246 34.9984 10.3996 34.9984 7.54956C34.9984 10.3996 31.7734 11.5246 31.7734 11.5246C31.7734 11.5246 34.9984 12.6496 34.9984 15.4996C34.9984 12.6496 38.2234 11.5246 38.2234 11.5246Z" stroke="#BF6128" stroke-width="2" stroke-miterlimit="10" stroke-linecap="round" stroke-linejoin="round"/>
<path d="M24.3484 5.07461C24.3484 5.07461 21.1234 3.94961 21.1234 1.09961C21.1234 3.94961 17.8984 5.07461 17.8984 5.07461C17.8984 5.07461 21.1234 6.19961 21.1234 9.04961C21.1234 6.19961 24.3484 5.07461 24.3484 5.07461Z" stroke="#BF6128" stroke-width="2" stroke-miterlimit="10" stroke-linecap="round" stroke-linejoin="round"/>
<path d="M8.22344 7.77456C8.22344 7.77456 4.99844 6.64956 4.99844 3.79956C4.99844 6.64956 1.77344 7.77456 1.77344 7.77456C1.77344 7.77456 4.99844 8.89956 4.99844 11.7496C4.99844 8.89956 8.22344 7.77456 8.22344 7.77456Z" stroke="#BF6128" stroke-width="2" stroke-miterlimit="10" stroke-linecap="round" stroke-linejoin="round"/>
</svg>
