<svg width="44" height="46" viewBox="0 0 44 46" fill="none" xmlns="http://www.w3.org/2000/svg">
<path d="M21.625 1.4375C21.625 1.4375 35.725 2.8625 42.25 12.3875C42.25 12.3875 41.35 38.4875 21.625 44.5625C1.9 38.4875 1 12.3125 1 12.3125C7.525 2.8625 21.625 1.4375 21.625 1.4375Z" stroke="#BF6128" stroke-width="2" stroke-miterlimit="10" stroke-linecap="round" stroke-linejoin="round"/>
<path d="M27.025 29.7875H16.225C15.1 29.7875 14.125 28.8875 14.125 27.6875V20.8625C14.125 19.7375 15.025 18.7625 16.225 18.7625H26.95C28.075 18.7625 29.05 19.6625 29.05 20.8625V27.6875C29.05 28.8125 28.15 29.7875 27.025 29.7875Z" stroke="#BF6128" stroke-width="2" stroke-miterlimit="10" stroke-linecap="round" stroke-linejoin="round"/>
<path d="M27.0266 18.8375V16.5875C27.0266 13.6625 24.6266 11.1875 21.6266 11.1875C18.7016 11.1875 16.2266 13.5875 16.2266 16.5875V18.8375" stroke="#BF6128" stroke-width="2" stroke-miterlimit="10" stroke-linecap="round" stroke-linejoin="round"/>
<path d="M21.6234 24.3875C22.369 24.3875 22.9734 23.7831 22.9734 23.0375C22.9734 22.2919 22.369 21.6875 21.6234 21.6875C20.8779 21.6875 20.2734 22.2919 20.2734 23.0375C20.2734 23.7831 20.8779 24.3875 21.6234 24.3875Z" stroke="#BF6128" stroke-width="2" stroke-miterlimit="10" stroke-linecap="round" stroke-linejoin="round"/>
<path d="M21.625 27.0875V24.3875" stroke="#BF6128" stroke-width="2" stroke-miterlimit="10" stroke-linecap="round" stroke-linejoin="round"/>
</svg>
