<svg width="43" height="46" viewBox="0 0 43 46" fill="none" xmlns="http://www.w3.org/2000/svg">
<path d="M4.97656 10.1003V26.0003H11.1266H18.0266H21.1766" stroke="#BF6128" stroke-width="2" stroke-miterlimit="10" stroke-linecap="round" stroke-linejoin="round"/>
<path d="M24.1016 23.0753V10.1003" stroke="#BF6128" stroke-width="2" stroke-miterlimit="10" stroke-linecap="round" stroke-linejoin="round"/>
<path d="M28.15 13.8503L14.575 1.17529L1 13.8503" stroke="#BF6128" stroke-width="2" stroke-miterlimit="10" stroke-linecap="round" stroke-linejoin="round"/>
<path d="M18.025 16.3257H11.125V26.0757H18.025V16.3257Z" stroke="#BF6128" stroke-width="2" stroke-miterlimit="10" stroke-linecap="round" stroke-linejoin="round"/>
<path d="M26.1234 44.8249L14.2734 32.8999L30.0984 17.1499L41.8734 17.2249L41.9484 28.9999L26.1234 44.8249Z" stroke="#BF6128" stroke-width="2" stroke-miterlimit="10" stroke-linecap="round" stroke-linejoin="round"/>
<path d="M27.2492 28.7753C28.4504 28.7753 29.4242 27.8015 29.4242 26.6003C29.4242 25.3991 28.4504 24.4253 27.2492 24.4253C26.048 24.4253 25.0742 25.3991 25.0742 26.6003C25.0742 27.8015 26.048 28.7753 27.2492 28.7753Z" stroke="#BF6128" stroke-width="2" stroke-miterlimit="10" stroke-linecap="round" stroke-linejoin="round"/>
<path d="M29.4242 37.0253C29.4242 38.2253 28.4492 39.2003 27.2492 39.2003C26.0492 39.2003 25.0742 38.2253 25.0742 37.0253C25.0742 35.8253 26.0492 34.8503 27.2492 34.8503C28.4492 34.8503 29.4242 35.8253 29.4242 37.0253Z" stroke="#BF6128" stroke-width="2" stroke-miterlimit="10" stroke-linecap="round" stroke-linejoin="round"/>
<path d="M21.1016 31.6252H33.4016" stroke="#BF6128" stroke-width="2" stroke-miterlimit="10" stroke-linecap="round" stroke-linejoin="round"/>
</svg>
