<svg width="24" height="24" viewBox="0 0 24 24" fill="none" xmlns="http://www.w3.org/2000/svg">
<path fill-rule="evenodd" clip-rule="evenodd" d="M16.2849 5.14286H19.1992C19.6792 5.14286 19.9192 5.14286 20.1026 5.23543C20.2637 5.31797 20.3945 5.44939 20.4763 5.61086C20.5706 5.79429 20.5706 6.03429 20.5706 6.51429V19.7331C20.5706 20.2337 20.5706 20.484 20.4214 20.8183C20.2737 21.1024 20.0647 21.3501 19.8094 21.5434C19.506 21.7457 19.3157 21.7783 18.9334 21.8434C17.6563 22.0629 15.4963 22.2857 11.9992 22.2857C8.50202 22.2857 6.34202 22.0629 5.06488 21.8434C4.68259 21.7783 4.49231 21.7457 4.18888 21.5434C3.93365 21.3501 3.72461 21.1024 3.57688 20.8183C3.42773 20.484 3.42773 20.2337 3.42773 19.7314V6.51429C3.42773 6.03429 3.42773 5.79429 3.52031 5.61086C3.60256 5.44913 3.73401 5.31768 3.89573 5.23543C4.07916 5.14286 4.31916 5.14286 4.79916 5.14286H7.71345V4.28571C7.71345 3.14907 8.16498 2.05898 8.96871 1.25526C9.77243 0.451529 10.8625 0 11.9992 0C13.1358 0 14.2259 0.451529 15.0296 1.25526C15.8333 2.05898 16.2849 3.14907 16.2849 4.28571V5.14286ZM9.77059 5.14286V4.28571C9.77059 3.69466 10.0054 3.12781 10.4233 2.70988C10.8413 2.29194 11.4081 2.05714 11.9992 2.05714C12.5902 2.05714 13.1571 2.29194 13.575 2.70988C13.9929 3.12781 14.2277 3.69466 14.2277 4.28571V5.14286H9.77059ZM11.9992 14.5714C10.8625 14.5714 9.77243 14.1199 8.96871 13.3162C8.16498 12.5124 7.71345 11.4224 7.71345 10.2857V8.57143H9.42773V10.2857C9.42773 10.6234 9.49425 10.9578 9.62347 11.2698C9.7527 11.5817 9.94211 11.8652 10.1809 12.104C10.4197 12.3428 10.7031 12.5322 11.0151 12.6614C11.3271 12.7906 11.6615 12.8571 11.9992 12.8571C12.3368 12.8571 12.6712 12.7906 12.9832 12.6614C13.2952 12.5322 13.5787 12.3428 13.8174 12.104C14.0562 11.8652 14.2456 11.5817 14.3749 11.2698C14.5041 10.9578 14.5706 10.6234 14.5706 10.2857V8.57143H16.2849V10.2857C16.2849 11.4224 15.8333 12.5124 15.0296 13.3162C14.2259 14.1199 13.1358 14.5714 11.9992 14.5714Z" fill="white"/>
</svg>
