<svg width="24" height="24" viewBox="0 0 24 24" fill="none" xmlns="http://www.w3.org/2000/svg">
<path fill-rule="evenodd" clip-rule="evenodd" d="M4.28627 22.2835C3.60429 22.2835 2.95023 22.0126 2.468 21.5303C1.98576 21.0481 1.71484 20.394 1.71484 19.7121C1.71484 19.0301 1.98576 18.376 2.468 17.8938C2.95023 17.4115 3.60429 17.1406 4.28627 17.1406C4.96826 17.1406 5.62231 17.4115 6.10455 17.8938C6.58678 18.376 6.8577 19.0301 6.8577 19.7121C6.8577 20.394 6.58678 21.0481 6.10455 21.5303C5.62231 22.0126 4.96826 22.2835 4.28627 22.2835Z" fill="white"/>
<path fill-rule="evenodd" clip-rule="evenodd" d="M9.35829 20.5725C9.55655 19.4097 9.34903 18.214 8.77051 17.186C8.19199 16.158 7.27765 15.3601 6.18076 14.9261C5.08387 14.492 3.87112 14.4483 2.74582 14.8022C1.62052 15.156 0.651071 15.886 0 16.8697L0 12.0011H2.63657C2.84662 12.0011 3.04807 11.9177 3.1966 11.7691C3.34513 11.6206 3.42857 11.4192 3.42857 11.2091V7.65026C3.42857 7.44021 3.34513 7.23876 3.1966 7.09023C3.04807 6.9417 2.84662 6.85826 2.63657 6.85826H0V3.42969H15.4286C18.8674 3.42969 20.5817 4.57312 20.5714 6.85826H19.7143C19.487 6.85826 19.2689 6.94856 19.1082 7.10931C18.9474 7.27006 18.8571 7.48807 18.8571 7.7154V12.0011C18.8571 13.1445 19.428 14.2863 20.5714 15.4297V19.9211C20.5714 20.2811 20.2834 20.5725 19.9269 20.5725H9.35829ZM5.93486 6.85826C5.72481 6.85826 5.52336 6.9417 5.37483 7.09023C5.2263 7.23876 5.14286 7.44021 5.14286 7.65026V11.2091C5.14286 11.6463 5.49771 12.0011 5.93486 12.0011H9.49371C9.70377 12.0011 9.90521 11.9177 10.0537 11.7691C10.2023 11.6206 10.2857 11.4192 10.2857 11.2091V7.65026C10.2857 7.44021 10.2023 7.23876 10.0537 7.09023C9.90521 6.9417 9.70377 6.85826 9.49371 6.85826H5.93486ZM12.792 6.85826C12.3549 6.85826 12 7.18912 12 7.5954V18.1211C12 18.5274 12.3549 18.8583 12.792 18.8583H16.3509C16.788 18.8583 17.1429 18.5274 17.1429 18.1211V7.5954C17.1429 7.18912 16.788 6.85826 16.3509 6.85826H12.792Z" fill="white"/>
</svg>
