<svg width="24" height="24" viewBox="0 0 24 24" fill="none" xmlns="http://www.w3.org/2000/svg">
<path d="M8.56678 1H9.19178C9.27705 1 9.36089 1.02181 9.43535 1.06335C9.50981 1.10489 9.57242 1.16478 9.61721 1.23733C9.662 1.30988 9.6875 1.39268 9.69127 1.47786C9.69505 1.56304 9.67698 1.64777 9.63878 1.724L6.50078 8H3.80078L7.70978 1.486C7.79852 1.3379 7.9241 1.2153 8.07428 1.13014C8.22446 1.04497 8.39413 1.00014 8.56678 1Z" fill="white"/>
<path fill-rule="evenodd" clip-rule="evenodd" d="M2.30273 12.3281L4.00773 19.8311C4.18373 20.6061 4.27173 20.9931 4.48773 21.3081C4.67173 21.5761 4.94573 21.8161 5.23573 21.9631C5.57673 22.1351 5.95473 22.1691 6.71073 22.2381C8.13073 22.3671 10.0657 22.5001 12.0007 22.5001C13.9357 22.5001 15.8707 22.3671 17.2907 22.2381C18.0467 22.1691 18.4247 22.1351 18.7657 21.9631C19.0557 21.8161 19.3297 21.5761 19.5137 21.3081C19.7297 20.9931 19.8177 20.6061 19.9937 19.8311L21.6987 12.3281C19.4067 12.6191 15.7037 13.0001 12.0007 13.0001C8.29773 13.0001 4.59473 12.6201 2.30273 12.3281ZM7.07773 15.3831C7.05073 15.2521 7.03773 15.1861 7.05573 15.1351C7.07138 15.0901 7.10259 15.0522 7.14373 15.0281C7.19073 15.0001 7.25773 15.0001 7.39073 15.0001H8.71073C8.81373 15.0001 8.86473 15.0001 8.90473 15.0201C8.94035 15.0368 8.97026 15.0636 8.99073 15.0971C9.01473 15.1361 9.01973 15.1871 9.02973 15.2881L9.46573 19.6481C9.47773 19.7701 9.48373 19.8311 9.46373 19.8781C9.44612 19.9194 9.41512 19.9536 9.37573 19.9751C9.33073 20.0001 9.27073 20.0001 9.14673 20.0001H8.26273C8.16973 20.0001 8.12273 20.0001 8.08473 19.9831C8.0509 19.9683 8.02183 19.9444 8.00073 19.9141C7.97673 19.8801 7.96773 19.8341 7.94973 19.7431L7.07773 15.3831ZM11.0277 15.1141C11.0077 15.1591 11.0097 15.2171 11.0137 15.3331L11.1887 19.6931C11.1927 19.8011 11.1947 19.8551 11.2177 19.8961C11.2373 19.9319 11.2673 19.9609 11.3037 19.9791C11.3457 20.0001 11.3997 20.0001 11.5077 20.0001H12.4937C12.6017 20.0001 12.6557 20.0001 12.6977 19.9801C12.7343 19.9616 12.7644 19.9323 12.7837 19.8961C12.8067 19.8551 12.8087 19.8011 12.8137 19.6931L12.9877 15.3331C12.9917 15.2171 12.9947 15.1591 12.9737 15.1141C12.955 15.0751 12.9241 15.0431 12.8857 15.0231C12.8407 15.0001 12.7837 15.0001 12.6677 15.0001H11.3337C11.2177 15.0001 11.1597 15.0001 11.1157 15.0231C11.0773 15.0431 11.0464 15.0751 11.0277 15.1141ZM14.9717 15.2881C14.9817 15.1861 14.9867 15.1361 15.0107 15.0971C15.031 15.0632 15.061 15.036 15.0967 15.0191C15.1367 15.0001 15.1877 15.0001 15.2907 15.0001H16.6107C16.7447 15.0001 16.8107 15.0001 16.8577 15.0271C16.8991 15.0514 16.9303 15.0897 16.9457 15.1351C16.9637 15.1861 16.9507 15.2521 16.9237 15.3831L16.0517 19.7431C16.0337 19.8341 16.0247 19.8801 16.0007 19.9151C15.9795 19.9451 15.9504 19.9686 15.9167 19.9831C15.8787 20.0001 15.8317 20.0001 15.7387 20.0001H14.8547C14.7317 20.0001 14.6707 20.0001 14.6247 19.9751C14.5857 19.9534 14.5551 19.9193 14.5377 19.8781C14.5177 19.8311 14.5237 19.7701 14.5357 19.6481L14.9717 15.2881Z" fill="white"/>
<path d="M20.2015 8L16.2925 1.486C16.2038 1.3379 16.0782 1.2153 15.928 1.13014C15.7779 1.04497 15.6082 1.00014 15.4355 1H14.8105C14.7253 1 14.6414 1.02181 14.567 1.06335C14.4925 1.10489 14.4299 1.16478 14.3851 1.23733C14.3403 1.30988 14.3148 1.39268 14.311 1.47786C14.3073 1.56304 14.3253 1.64777 14.3635 1.724L17.5005 8H20.2015Z" fill="white"/>
<path d="M1.00231 9.93C0.999308 9.964 0.999308 10.005 0.999308 10.09C0.987461 10.3275 1.05936 10.5616 1.20245 10.7514C1.34555 10.9413 1.55077 11.0749 1.78231 11.129C1.81231 11.136 1.84031 11.139 1.89431 11.149C3.67231 11.427 7.83631 12 11.9993 12C16.1623 12 20.3263 11.427 22.1043 11.149C22.3382 11.1214 22.5551 11.0133 22.718 10.8432C22.881 10.6732 22.9797 10.4518 22.9973 10.217C22.9993 10.185 22.9993 10.153 22.9993 10.09C22.9993 10.006 22.9993 9.965 22.9963 9.93C22.9794 9.68991 22.8764 9.464 22.7063 9.29371C22.5362 9.12343 22.3104 9.02021 22.0703 9.003C22.0343 9 21.9933 9 21.9093 9H2.08931C2.00531 9 1.96431 9 1.92931 9.003C1.68922 9.01995 1.4633 9.12293 1.29302 9.29303C1.12274 9.46313 1.01952 9.68893 1.00231 9.929V9.93Z" fill="white"/>
</svg>
