<svg width="24" height="24" viewBox="0 0 24 24" fill="none" xmlns="http://www.w3.org/2000/svg">
<g clip-path="url(#clip0_451_61139)">
<path d="M12 0C12.3978 0 12.7794 0.158035 13.0607 0.43934C13.342 0.720644 13.5 1.10218 13.5 1.5V2.112C15.16 2.362 16.686 3.019 17.974 3.979C18.011 3.921 18.056 3.865 18.107 3.814L18.461 3.461C18.5994 3.31773 18.7649 3.20346 18.9479 3.12485C19.1309 3.04623 19.3277 3.00485 19.5269 3.00312C19.7261 3.00139 19.9236 3.03935 20.1079 3.11477C20.2923 3.19019 20.4598 3.30157 20.6006 3.44241C20.7414 3.58325 20.8528 3.75072 20.9282 3.93507C21.0037 4.11941 21.0416 4.31693 21.0399 4.5161C21.0381 4.71527 20.9968 4.9121 20.9182 5.09511C20.8395 5.27811 20.7253 5.44363 20.582 5.582L20.228 5.936C20.175 5.989 20.117 6.036 20.056 6.074C21.0193 7.37973 21.6486 8.90128 21.889 10.506C21.926 10.502 21.962 10.5 22 10.5H22.5C22.8978 10.5 23.2794 10.658 23.5607 10.9393C23.842 11.2206 24 11.6022 24 12C24 12.3978 23.842 12.7794 23.5607 13.0607C23.2794 13.342 22.8978 13.5 22.5 13.5H22C21.962 13.5 21.926 13.498 21.89 13.494C21.6758 14.9095 21.1602 16.2625 20.3782 17.4617C19.5962 18.6608 18.5659 19.6782 17.357 20.445L16.719 18.46C17.668 17.7677 18.4528 16.8747 19.0173 15.8446C19.5818 14.8144 19.9122 13.6724 19.985 12.5H15.969C16.0104 12.1679 16.0104 11.8321 15.969 11.5H19.985C19.8761 9.72585 19.177 8.03906 17.999 6.708L15.159 9.548C14.954 9.28357 14.7169 9.04573 14.453 8.84L17.293 6C15.9614 4.82249 14.2743 4.12412 12.5 4.016V8.032C12.168 7.99058 11.832 7.99058 11.5 8.032V4.015C9.72585 4.1239 8.03906 4.82297 6.708 6.001L9.548 8.841C9.28357 9.04598 9.04573 9.28315 8.84 9.547L6 6.707C4.82249 8.0386 4.12412 9.72574 4.016 11.5H8.032C7.99058 11.832 7.99058 12.168 8.032 12.5H4.015C4.08779 13.6724 4.41822 14.8144 4.98273 15.8446C5.54724 16.8747 6.33196 17.7677 7.281 18.46L6.643 20.445C5.43508 19.6787 4.40558 18.6622 3.62395 17.4641C2.84231 16.2661 2.32674 14.9143 2.112 13.5H1.5C1.10218 13.5 0.720644 13.342 0.43934 13.0607C0.158035 12.7794 0 12.3978 0 12C0 11.6022 0.158035 11.2206 0.43934 10.9393C0.720644 10.658 1.10218 10.5 1.5 10.5H2.112C2.35422 8.88957 2.98811 7.36323 3.958 6.055C3.90637 6.01957 3.85816 5.97939 3.814 5.935L3.461 5.582C3.31773 5.44363 3.20346 5.27811 3.12485 5.09511C3.04623 4.9121 3.00485 4.71527 3.00312 4.5161C3.00139 4.31693 3.03935 4.11941 3.11477 3.93507C3.19019 3.75072 3.30157 3.58325 3.44241 3.44241C3.58325 3.30157 3.75072 3.19019 3.93507 3.11477C4.11941 3.03935 4.31693 3.00139 4.5161 3.00312C4.71527 3.00485 4.9121 3.04623 5.09511 3.12485C5.27811 3.20346 5.44363 3.31773 5.582 3.461L5.936 3.814C5.981 3.859 6.02 3.907 6.055 3.958C7.36323 2.98811 8.88957 2.35422 10.5 2.112V1.5C10.5 1.10218 10.658 0.720644 10.9393 0.43934C11.2206 0.158035 11.6022 0 12 0Z" fill="white"/>
<path fill-rule="evenodd" clip-rule="evenodd" d="M14.5 12.0001C14.5 12.6771 14.231 13.2901 13.794 13.7411L16.351 21.9231C16.436 22.1961 16.505 22.4161 16.553 22.5991C17.436 22.8121 18 23.0001 18 23.0001V24.0001H6V23.0001C6 23.0001 6.564 22.8121 7.447 22.6001C7.495 22.4161 7.564 22.1961 7.649 21.9231L10.206 13.7411C9.92077 13.4472 9.7121 13.0878 9.59836 12.6943C9.48461 12.3009 9.46926 11.8855 9.55367 11.4848C9.63807 11.084 9.81964 10.7101 10.0824 10.396C10.3452 10.0818 10.6811 9.83707 11.0606 9.68319C11.4402 9.5293 11.8517 9.47102 12.2591 9.51346C12.6664 9.5559 13.0571 9.69777 13.3968 9.92659C13.7364 10.1554 14.0147 10.4642 14.2071 10.8257C14.3994 11.1873 14.5 11.5906 14.5 12.0001ZM12.77 17.7751L13.98 22.1281C13.3232 22.0457 12.662 22.003 12 22.0001C11.329 22.0001 10.658 22.0501 10.02 22.1281L11.23 17.7751C11.459 16.9491 11.573 16.5361 11.752 16.4351C11.8275 16.392 11.913 16.3693 12 16.3693C12.087 16.3693 12.1725 16.392 12.248 16.4351C12.427 16.5361 12.54 16.9491 12.77 17.7751ZM12.7 12.0001C12.7 12.1858 12.6263 12.3638 12.495 12.4951C12.3637 12.6264 12.1857 12.7001 12 12.7001C11.8143 12.7001 11.6363 12.6264 11.505 12.4951C11.3737 12.3638 11.3 12.1858 11.3 12.0001C11.3 11.8145 11.3737 11.6364 11.505 11.5052C11.6363 11.3739 11.8143 11.3001 12 11.3001C12.1857 11.3001 12.3637 11.3739 12.495 11.5052C12.6263 11.6364 12.7 11.8145 12.7 12.0001Z" fill="white"/>
</g>
<defs>
<clipPath id="clip0_451_61139">
<rect width="24" height="24" fill="white"/>
</clipPath>
</defs>
</svg>
