<svg width="25" height="24" viewBox="0 0 25 24" fill="none" xmlns="http://www.w3.org/2000/svg">
<path d="M3.50002 5L17.5 5" stroke="white" stroke-miterlimit="10" stroke-linecap="round" stroke-linejoin="round"/>
<path d="M18.5004 5L21.3945 5" stroke="white" stroke-miterlimit="10" stroke-linecap="round" stroke-linejoin="round"/>
<path d="M17.5 6.01449L17.5 3.98551C17.5 3.46377 17.7353 3 18 3C18.2647 3 18.5 3.46377 18.5 3.98551L18.5 6.01449C18.5 6.53623 18.2647 7 18 7C17.7353 7 17.5 6.5942 17.5 6.01449Z" fill="white" stroke="white" stroke-miterlimit="10" stroke-linecap="round" stroke-linejoin="round"/>
<path d="M3.50184 12.0234L7.03125 12.0234" stroke="white" stroke-miterlimit="10" stroke-linecap="round" stroke-linejoin="round"/>
<path d="M8.5 12.0234L21.5 12.0234" stroke="white" stroke-miterlimit="10" stroke-linecap="round" stroke-linejoin="round"/>
<path d="M7.5 13.0145L7.5 10.9855C7.5 10.4638 7.73529 10 8 10C8.26471 10 8.5 10.4638 8.5 10.9855L8.5 13.0145C8.5 13.5362 8.26471 14 8 14C7.70588 14 7.5 13.5362 7.5 13.0145Z" fill="white" stroke="white" stroke-miterlimit="10" stroke-linecap="round" stroke-linejoin="round"/>
<path d="M3.5 19L15.5 19" stroke="white" stroke-miterlimit="10" stroke-linecap="round" stroke-linejoin="round"/>
<path d="M15.4994 19L21.6406 19" stroke="white" stroke-miterlimit="10" stroke-linecap="round" stroke-linejoin="round"/>
<path d="M14.5 20.0145L14.5 17.9855C14.5 17.4638 14.7353 17 15 17C15.2647 17 15.5 17.4638 15.5 17.9855L15.5 20.0145C15.5 20.5362 15.2647 21 15 21C14.7059 21 14.5 20.5942 14.5 20.0145Z" fill="white" stroke="white" stroke-miterlimit="10" stroke-linecap="round" stroke-linejoin="round"/>
</svg>
