<svg width="48" height="48" viewBox="0 0 48 48" fill="none" xmlns="http://www.w3.org/2000/svg">
<path d="M16.55 31.4066C24.5857 31.4066 31.1 24.8924 31.1 16.8566C31.1 8.8209 24.5857 2.30664 16.55 2.30664C8.51426 2.30664 2 8.8209 2 16.8566C2 24.8924 8.51426 31.4066 16.55 31.4066Z" stroke="#BF6128" stroke-width="2" stroke-miterlimit="10" stroke-linecap="round" stroke-linejoin="round"/>
<path d="M29.8992 22.6309L32.0742 24.8059C32.8242 25.5559 32.8242 26.8309 32.0742 27.5809L27.2742 32.3809C26.5242 33.1309 25.2492 33.1309 24.4992 32.3809L22.3242 30.2059" stroke="#BF6128" stroke-width="2" stroke-miterlimit="10" stroke-linecap="round" stroke-linejoin="round"/>
<path d="M44.6016 44.9074C43.5516 45.9574 41.8266 45.9574 40.7766 44.9074L27.7266 31.9324L31.5516 28.1074L44.5266 41.0824C45.6516 42.1324 45.6516 43.8574 44.6016 44.9074Z" stroke="#BF6128" stroke-width="2" stroke-miterlimit="10" stroke-linecap="round" stroke-linejoin="round"/>
<path d="M22.5508 13.332V23.307H10.5508V13.332" stroke="#BF6128" stroke-width="2" stroke-miterlimit="10" stroke-linecap="round" stroke-linejoin="round"/>
<path d="M25.0242 15.6563L16.5492 7.78125L8.07422 15.6563" stroke="#BF6128" stroke-width="2" stroke-miterlimit="10" stroke-linecap="round" stroke-linejoin="round"/>
<path d="M14.8242 22.1309V17.1309" stroke="#BF6128" stroke-width="2" stroke-miterlimit="10" stroke-linecap="round" stroke-linejoin="round"/>
<path d="M18.8242 22.1309V17.1309" stroke="#BF6128" stroke-width="2" stroke-miterlimit="10" stroke-linecap="round" stroke-linejoin="round"/>
<path d="M18.8242 17.1309H14.8242" stroke="#BF6128" stroke-width="2" stroke-miterlimit="10" stroke-linecap="round" stroke-linejoin="round"/>
</svg>
