<svg width="46" height="43" viewBox="0 0 46 43" fill="none" xmlns="http://www.w3.org/2000/svg">
<path d="M10.0742 26.7246C11.7311 26.7246 13.0742 25.3815 13.0742 23.7246C13.0742 22.0678 11.7311 20.7246 10.0742 20.7246C8.41736 20.7246 7.07422 22.0678 7.07422 23.7246C7.07422 25.3815 8.41736 26.7246 10.0742 26.7246Z" stroke="#BF6128" stroke-width="2" stroke-miterlimit="10" stroke-linecap="round" stroke-linejoin="round"/>
<path d="M1 41.3504L5.05 29.5754C5.725 27.8504 7.375 26.6504 9.25 26.6504C11.425 26.6504 13.3 28.2254 13.675 30.3254L14.425 34.2254L20.275 34.7504C20.95 34.8254 21.475 35.3504 21.475 36.0254C21.475 36.7754 20.875 37.3754 20.125 37.3754H13.75C12.325 37.3754 11.125 36.4004 10.825 35.0504L10 31.6754" stroke="#BF6128" stroke-width="2" stroke-miterlimit="10" stroke-linecap="round" stroke-linejoin="round"/>
<path d="M35.7246 26.7246C37.3815 26.7246 38.7246 25.3815 38.7246 23.7246C38.7246 22.0678 37.3815 20.7246 35.7246 20.7246C34.0678 20.7246 32.7246 22.0678 32.7246 23.7246C32.7246 25.3815 34.0678 26.7246 35.7246 26.7246Z" stroke="#BF6128" stroke-width="2" stroke-miterlimit="10" stroke-linecap="round" stroke-linejoin="round"/>
<path d="M44.7992 41.3504L40.7492 29.5754C40.0742 27.8504 38.4242 26.6504 36.5492 26.6504C34.3742 26.6504 32.4992 28.2254 32.1242 30.3254L31.3742 34.2254L25.5242 34.7504C24.8492 34.8254 24.3242 35.3504 24.3242 36.0254C24.3242 36.7754 24.9242 37.3754 25.6742 37.3754H32.0492C33.4742 37.3754 34.6742 36.4004 34.9742 35.0504L35.7992 31.6754" stroke="#BF6128" stroke-width="2" stroke-miterlimit="10" stroke-linecap="round" stroke-linejoin="round"/>
<path d="M33.2496 41.3502H12.1746C11.1246 41.3502 10.2246 40.5252 10.2246 39.4002C10.2246 38.3502 11.0496 37.4502 12.1746 37.4502H33.2496C34.2996 37.4502 35.1996 38.2752 35.1996 39.4002C35.1996 40.5252 34.2996 41.3502 33.2496 41.3502Z" stroke="#BF6128" stroke-width="2" stroke-miterlimit="10" stroke-linecap="round" stroke-linejoin="round"/>
<path d="M16.1496 15.1L12.7746 18.025V14.275H9.47461V1H26.8746V5.2" stroke="#BF6128" stroke-width="2" stroke-miterlimit="10" stroke-linecap="round" stroke-linejoin="round"/>
<path d="M25.9004 18.4752H16.1504V5.2002H33.5504V18.4752H30.2504V22.2252L25.9004 18.4752Z" stroke="#BF6128" stroke-width="2" stroke-miterlimit="10" stroke-linecap="round" stroke-linejoin="round"/>
</svg>
