<svg width="42" height="46" viewBox="0 0 42 46" fill="none" xmlns="http://www.w3.org/2000/svg">
<path d="M5.25 17.7496V14.5996" stroke="#BF6128" stroke-width="2" stroke-miterlimit="10" stroke-linecap="round" stroke-linejoin="round"/>
<path d="M5.25 32.3004V29.1504" stroke="#BF6128" stroke-width="2" stroke-miterlimit="10" stroke-linecap="round" stroke-linejoin="round"/>
<path d="M5.25 36.425V40.025C5.25 42.425 7.2 44.375 9.6 44.375H31.05H33H35.5V44.375C38.3028 44.375 40.575 42.1028 40.575 39.3V27.5C40.575 26.5 40.575 25.925 40.575 25.025V5.975C40.575 3.575 38.625 1.625 36.225 1.625H9.6C7.2 1.625 5.25 3.575 5.25 5.975V10.475" stroke="#BF6128" stroke-width="2" stroke-miterlimit="10" stroke-linecap="round" stroke-linejoin="round"/>
<path d="M5.25 25.0248V21.7998" stroke="#BF6128" stroke-width="2" stroke-miterlimit="10" stroke-linecap="round" stroke-linejoin="round"/>
<path d="M7.72578 14.5998H2.77578C2.02578 14.5998 1.42578 13.9998 1.42578 13.2498V11.8998C1.42578 11.1498 2.02578 10.5498 2.77578 10.5498H7.65078C8.40078 10.5498 9.00078 11.1498 9.00078 11.8998V13.2498C9.07578 13.9248 8.47578 14.5998 7.72578 14.5998Z" stroke="#BF6128" stroke-width="2" stroke-miterlimit="10" stroke-linecap="round" stroke-linejoin="round"/>
<path d="M7.72578 21.8752H2.77578C2.02578 21.8752 1.42578 21.2752 1.42578 20.5252V19.1752C1.42578 18.4252 2.02578 17.8252 2.77578 17.8252H7.65078C8.40078 17.8252 9.00078 18.4252 9.00078 19.1752V20.5252C9.07578 21.2002 8.47578 21.8752 7.72578 21.8752Z" stroke="#BF6128" stroke-width="2" stroke-miterlimit="10" stroke-linecap="round" stroke-linejoin="round"/>
<path d="M7.72578 29.1496H2.77578C2.02578 29.1496 1.42578 28.5496 1.42578 27.7996V26.4496C1.42578 25.6996 2.02578 25.0996 2.77578 25.0996H7.65078C8.40078 25.0996 9.00078 25.6996 9.00078 26.4496V27.7996C9.07578 28.4746 8.47578 29.1496 7.72578 29.1496Z" stroke="#BF6128" stroke-width="2" stroke-miterlimit="10" stroke-linecap="round" stroke-linejoin="round"/>
<path d="M7.72578 36.425H2.77578C2.02578 36.425 1.42578 35.825 1.42578 35.075V33.725C1.42578 32.975 2.02578 32.375 2.77578 32.375H7.65078C8.40078 32.375 9.00078 32.975 9.00078 33.725V35C9.07578 35.75 8.47578 36.425 7.72578 36.425Z" stroke="#BF6128" stroke-width="2" stroke-miterlimit="10" stroke-linecap="round" stroke-linejoin="round"/>
<path d="M28.65 14.875V11.725C28.65 10.75 27.9 10 26.925 10H25.05C21.15 10 18 13.15 18 17.05V28.3C18 32.2 21.15 35.35 25.05 35.35H26.925C27.9 35.35 28.65 34.6 28.65 33.625V30.475C28.65 29.5 27.9 28.75 26.925 28.75H25.875C24.525 28.75 23.475 27.7 23.475 26.35V18.925C23.475 17.575 24.525 16.525 25.875 16.525H26.925C27.825 16.6 28.65 15.85 28.65 14.875Z" stroke="#BF6128" stroke-width="2" stroke-miterlimit="10" stroke-linecap="round" stroke-linejoin="round"/>
</svg>
