<svg width="43" height="46" viewBox="0 0 43 46" fill="none" xmlns="http://www.w3.org/2000/svg">
<path d="M7.075 38.0748H3.175C1.975 38.0748 1 37.0998 1 35.8998V3.7248C1 2.5248 1.975 1.5498 3.175 1.5498H30.25C31.45 1.5498 32.425 2.5248 32.425 3.7248V6.9498" stroke="#BF6128" stroke-width="2" stroke-miterlimit="10" stroke-linecap="round" stroke-linejoin="round"/>
<path d="M32.425 23.75V35.9C32.425 37.1 31.45 38.075 30.25 38.075H12.625" stroke="#BF6128" stroke-width="2" stroke-miterlimit="10" stroke-linecap="round" stroke-linejoin="round"/>
<path d="M38.8746 12.9502V13.0252V23.7502H25.9746V13.0252" stroke="#BF6128" stroke-width="2" stroke-miterlimit="10" stroke-linecap="round" stroke-linejoin="round"/>
<path d="M41.5754 15.4994L32.4254 7.02441L23.2754 15.4994" stroke="#BF6128" stroke-width="2" stroke-miterlimit="10" stroke-linecap="round" stroke-linejoin="round"/>
<path d="M34.7496 17.2246H30.0996V23.7496H34.7496V17.2246Z" stroke="#BF6128" stroke-width="2" stroke-miterlimit="10" stroke-linecap="round" stroke-linejoin="round"/>
<path d="M9.85078 35.1498C12.2946 35.1498 14.2758 33.1687 14.2758 30.7248C14.2758 28.2809 12.2946 26.2998 9.85078 26.2998C7.40692 26.2998 5.42578 28.2809 5.42578 30.7248C5.42578 33.1687 7.40692 35.1498 9.85078 35.1498Z" stroke="#BF6128" stroke-width="2" stroke-miterlimit="10" stroke-linecap="round" stroke-linejoin="round"/>
<path d="M12.6242 34.1748V44.4498L9.84922 42.0498L7.07422 44.4498V34.1748" stroke="#BF6128" stroke-width="2" stroke-miterlimit="10" stroke-linecap="round" stroke-linejoin="round"/>
<path d="M12.4746 13.625H20.4996" stroke="#BF6128" stroke-width="2" stroke-miterlimit="10" stroke-linecap="round" stroke-linejoin="round"/>
<path d="M10.0742 18.3496H22.8992" stroke="#BF6128" stroke-width="2" stroke-miterlimit="10" stroke-linecap="round" stroke-linejoin="round"/>
<path d="M10.0742 23.0752H22.8992" stroke="#BF6128" stroke-width="2" stroke-miterlimit="10" stroke-linecap="round" stroke-linejoin="round"/>
<path d="M23.1258 5.75H9.92578V9.5H23.1258V5.75Z" stroke="#BF6128" stroke-width="2" stroke-miterlimit="10" stroke-linecap="round" stroke-linejoin="round"/>
<path d="M17.8008 30.2749C17.8008 30.2749 21.1758 28.3249 23.1258 30.2749C25.0758 32.2249 28.5258 30.2749 28.5258 30.2749" stroke="#BF6128" stroke-width="2" stroke-miterlimit="10" stroke-linecap="round" stroke-linejoin="round"/>
</svg>
