<svg width="40" height="46" viewBox="0 0 40 46" fill="none" xmlns="http://www.w3.org/2000/svg">
<path d="M11.5246 20.75C16.2466 20.75 20.0746 19.4069 20.0746 17.75C20.0746 16.0931 16.2466 14.75 11.5246 14.75C6.80257 14.75 2.97461 16.0931 2.97461 17.75C2.97461 19.4069 6.80257 20.75 11.5246 20.75Z" stroke="#BF6128" stroke-width="2" stroke-miterlimit="10" stroke-linecap="round" stroke-linejoin="round"/>
<path d="M2.97461 17.75V23.825C2.97461 25.475 6.79961 26.825 11.5246 26.825C16.2496 26.825 20.0746 25.475 20.0746 23.825V17.75" stroke="#BF6128" stroke-width="2" stroke-miterlimit="10" stroke-linecap="round" stroke-linejoin="round"/>
<path d="M2.97461 23.75C2.97461 23.825 2.97461 23.9 2.97461 23.9C3.19961 25.475 6.94961 26.75 11.5246 26.75C16.0996 26.75 19.8496 25.475 20.0746 23.9V23.825V23.75" stroke="#BF6128" stroke-width="2" stroke-miterlimit="10" stroke-linecap="round" stroke-linejoin="round"/>
<path d="M2.97461 23.75V29.825C2.97461 31.475 6.79961 32.825 11.5246 32.825C16.2496 32.825 20.0746 31.475 20.0746 29.825V23.75" stroke="#BF6128" stroke-width="2" stroke-miterlimit="10" stroke-linecap="round" stroke-linejoin="round"/>
<path d="M2.97461 29.8242V35.8992C2.97461 37.5492 6.79961 38.8992 11.5246 38.8992C16.2496 38.8992 20.0746 37.5492 20.0746 35.8992V29.8242" stroke="#BF6128" stroke-width="2" stroke-miterlimit="10" stroke-linecap="round" stroke-linejoin="round"/>
<path d="M2.97461 35.8242V41.8992C2.97461 43.5492 6.79961 44.8992 11.5246 44.8992C16.2496 44.8992 20.0746 43.5492 20.0746 41.8992V35.8242" stroke="#BF6128" stroke-width="2" stroke-miterlimit="10" stroke-linecap="round" stroke-linejoin="round"/>
<path d="M2.97461 17.75V23.825C2.97461 25.475 6.79961 26.825 11.5246 26.825C16.2496 26.825 20.0746 25.475 20.0746 23.825V17.75" stroke="#BF6128" stroke-width="2" stroke-miterlimit="10" stroke-linecap="round" stroke-linejoin="round"/>
<path d="M28.7004 26.75C33.4224 26.75 37.2504 25.4069 37.2504 23.75C37.2504 22.0931 33.4224 20.75 28.7004 20.75C23.9784 20.75 20.1504 22.0931 20.1504 23.75C20.1504 25.4069 23.9784 26.75 28.7004 26.75Z" stroke="#BF6128" stroke-width="2" stroke-miterlimit="10" stroke-linecap="round" stroke-linejoin="round"/>
<path d="M20.0762 23.75V29.825C20.0762 31.475 23.9012 32.825 28.6262 32.825C33.3512 32.825 37.1762 31.475 37.1762 29.825V23.75" stroke="#BF6128" stroke-width="2" stroke-miterlimit="10" stroke-linecap="round" stroke-linejoin="round"/>
<path d="M20.0762 29.8242V35.8992C20.0762 37.5492 23.9012 38.8992 28.6262 38.8992C33.3512 38.8992 37.1762 37.5492 37.1762 35.8992V29.8242" stroke="#BF6128" stroke-width="2" stroke-miterlimit="10" stroke-linecap="round" stroke-linejoin="round"/>
<path d="M20.0762 35.8242V41.8992C20.0762 43.5492 23.9012 44.8992 28.6262 44.8992C33.3512 44.8992 37.1762 43.5492 37.1762 41.8992V35.8242" stroke="#BF6128" stroke-width="2" stroke-miterlimit="10" stroke-linecap="round" stroke-linejoin="round"/>
<path d="M38.2254 11.5248C38.2254 11.5248 35.0004 10.3998 35.0004 7.5498C35.0004 10.3998 31.7754 11.5248 31.7754 11.5248C31.7754 11.5248 35.0004 12.6498 35.0004 15.4998C35.0004 12.6498 38.2254 11.5248 38.2254 11.5248Z" stroke="#BF6128" stroke-width="2" stroke-miterlimit="10" stroke-linecap="round" stroke-linejoin="round"/>
<path d="M24.3504 5.07461C24.3504 5.07461 21.1254 3.94961 21.1254 1.09961C21.1254 3.94961 17.9004 5.07461 17.9004 5.07461C17.9004 5.07461 21.1254 6.19961 21.1254 9.04961C21.1254 6.19961 24.3504 5.07461 24.3504 5.07461Z" stroke="#BF6128" stroke-width="2" stroke-miterlimit="10" stroke-linecap="round" stroke-linejoin="round"/>
<path d="M8.22539 7.7748C8.22539 7.7748 5.00039 6.6498 5.00039 3.7998C5.00039 6.6498 1.77539 7.7748 1.77539 7.7748C1.77539 7.7748 5.00039 8.89981 5.00039 11.7498C5.00039 8.89981 8.22539 7.7748 8.22539 7.7748Z" stroke="#BF6128" stroke-width="2" stroke-miterlimit="10" stroke-linecap="round" stroke-linejoin="round"/>
</svg>
