<svg width="342" height="290" viewBox="0 0 342 290" fill="none" xmlns="http://www.w3.org/2000/svg">
<path d="M0 8C0 3.58173 3.58172 0 8 0H334C338.418 0 342 3.58172 342 8V282C342 286.418 338.418 290 334 290H8.00001C3.58173 290 0 286.418 0 282V8Z" fill="#BF6128"/>
<path d="M49.052 73.84C40.036 73.84 34.24 67.288 34.24 57.852C34.24 48.416 40.092 41.92 49.052 41.92C58.096 41.92 63.892 48.444 63.892 57.852C63.892 67.344 58.068 73.84 49.052 73.84ZM49.052 68.324C54.652 68.324 57.676 64.292 57.676 57.852C57.676 51.356 54.652 47.436 49.052 47.436C43.396 47.436 40.456 51.412 40.456 57.852C40.456 64.348 43.508 68.324 49.052 68.324ZM81.7368 73H75.8848V48.248H65.7488V42.76H91.8728V48.248H81.7368V73ZM105.721 73V67.428L122.773 51.944C126.105 48.892 127.505 46.624 127.505 43.712C127.505 39.456 124.229 37.412 119.973 37.412C115.297 37.412 112.105 40.184 111.293 44.748L105.049 43.684C106.617 36.264 112.133 31.868 119.917 31.868C127.617 31.868 133.749 35.76 133.637 43.796C133.553 48.724 130.613 52.812 127.785 55.416L114.541 67.428H133.665V73H105.721ZM155.356 73.84C145.248 73.84 139.284 66.252 139.284 52.84C139.284 39.428 145.248 31.84 155.356 31.84C165.492 31.84 171.456 39.428 171.456 52.84C171.456 66.252 165.492 73.84 155.356 73.84ZM155.356 68.268C161.74 68.268 165.24 62.584 165.24 52.84C165.24 43.096 161.74 37.412 155.356 37.412C149 37.412 145.5 43.068 145.5 52.84C145.5 62.556 148.972 68.268 155.356 68.268ZM194.267 73.84C184.159 73.84 178.195 66.252 178.195 52.84C178.195 39.428 184.159 31.84 194.267 31.84C204.403 31.84 210.367 39.428 210.367 52.84C210.367 66.252 204.403 73.84 194.267 73.84ZM194.267 68.268C200.651 68.268 204.151 62.584 204.151 52.84C204.151 43.096 200.651 37.412 194.267 37.412C187.911 37.412 184.411 43.068 184.411 52.84C184.411 62.556 187.883 68.268 194.267 68.268ZM233.178 73.84C223.07 73.84 217.106 66.252 217.106 52.84C217.106 39.428 223.07 31.84 233.178 31.84C243.314 31.84 249.278 39.428 249.278 52.84C249.278 66.252 243.314 73.84 233.178 73.84ZM233.178 68.268C239.562 68.268 243.062 62.584 243.062 52.84C243.062 43.096 239.562 37.412 233.178 37.412C226.822 37.412 223.322 43.068 223.322 52.84C223.322 62.556 226.794 68.268 233.178 68.268ZM33.68 135.524V123.512H36.62C38.58 121.272 38.776 115.028 38.776 109.484V98.76H61.904V123.512H65.824V135.524H59.972V129H39.532V135.524H33.68ZM42.752 123.512H56.052V104.248H44.236V112.452C44.236 117.128 43.676 121.244 42.752 123.512ZM83.4242 129.84C74.4082 129.84 68.6122 123.288 68.6122 113.852C68.6122 104.416 74.4642 97.92 83.4242 97.92C92.4682 97.92 98.2642 104.444 98.2642 113.852C98.2642 123.344 92.4402 129.84 83.4242 129.84ZM83.4242 124.324C89.0242 124.324 92.0482 120.292 92.0482 113.852C92.0482 107.356 89.0242 103.436 83.4242 103.436C77.7682 103.436 74.8282 107.412 74.8282 113.852C74.8282 120.348 77.8802 124.324 83.4242 124.324ZM142.62 116.652C142.62 124.856 136.516 129.84 127.948 129.84C120.276 129.84 114.004 126.116 112.268 117.436L118.316 116.512C119.492 121.496 122.264 124.324 128.06 124.324C133.128 124.324 136.488 120.992 136.488 116.876C136.488 112.228 133.38 109.82 127.948 109.82H115.096L116.412 88.68H139.904V94.196H121.956L121.312 104.248H128.06C137.468 104.248 142.62 108.896 142.62 116.652ZM164.27 129.84C154.162 129.84 148.198 122.252 148.198 108.84C148.198 95.428 154.162 87.84 164.27 87.84C174.406 87.84 180.37 95.428 180.37 108.84C180.37 122.252 174.406 129.84 164.27 129.84ZM164.27 124.268C170.654 124.268 174.154 118.584 174.154 108.84C174.154 99.096 170.654 93.412 164.27 93.412C157.914 93.412 154.414 99.068 154.414 108.84C154.414 118.556 157.886 124.268 164.27 124.268ZM203.181 129.84C193.073 129.84 187.109 122.252 187.109 108.84C187.109 95.428 193.073 87.84 203.181 87.84C213.317 87.84 219.281 95.428 219.281 108.84C219.281 122.252 213.317 129.84 203.181 129.84ZM203.181 124.268C209.565 124.268 213.065 118.584 213.065 108.84C213.065 99.096 209.565 93.412 203.181 93.412C196.825 93.412 193.325 99.068 193.325 108.84C193.325 118.556 196.797 124.268 203.181 124.268ZM242.092 129.84C231.984 129.84 226.02 122.252 226.02 108.84C226.02 95.428 231.984 87.84 242.092 87.84C252.228 87.84 258.192 95.428 258.192 108.84C258.192 122.252 252.228 129.84 242.092 129.84ZM242.092 124.268C248.476 124.268 251.976 118.584 251.976 108.84C251.976 99.096 248.476 93.412 242.092 93.412C235.736 93.412 232.236 99.068 232.236 108.84C232.236 118.556 235.708 124.268 242.092 124.268ZM277.962 129V123.064H273.902V118.36H277.962V113.684H273.902V108.98H277.962V88.68H293.558C302.63 88.68 307.53 93.076 307.53 101.196C307.53 109.288 302.63 113.684 293.558 113.684H283.87V118.36H298.178V123.064H283.87V129H277.962ZM283.87 94.196V108.98H293.53C298.682 108.98 301.566 106.32 301.566 101.588C301.566 96.884 298.682 94.196 293.53 94.196H283.87Z" fill="white"/>
<path d="M37.152 160H33.12V148.48H37.032C39.248 148.48 40.816 149.408 40.816 151.44C40.816 152.896 39.96 153.728 39.008 154.048C40.04 154.248 41.184 155.2 41.184 156.832C41.184 159.08 39.48 160 37.152 160ZM37.048 149.608H34.296V153.512H37.376C38.64 153.512 39.608 152.88 39.608 151.512C39.608 150.136 38.568 149.608 37.048 149.608ZM34.296 158.872H37.152C38.792 158.872 39.976 158.384 39.976 156.728C39.976 155.224 38.768 154.616 37.4 154.616H34.296V158.872ZM46.0643 160.24C43.4963 160.24 41.9763 158.36 41.9763 155.672C41.9763 152.96 43.5363 151.12 46.0643 151.12C48.6483 151.12 50.1603 152.992 50.1603 155.672C50.1603 158.392 48.6243 160.24 46.0643 160.24ZM46.0643 159.112C47.9523 159.112 48.9123 157.744 48.9123 155.672C48.9123 153.568 47.9443 152.248 46.0643 152.248C44.1603 152.248 43.2243 153.616 43.2243 155.672C43.2243 157.776 44.2083 159.112 46.0643 159.112ZM54.4488 160.24C52.4968 160.24 51.1128 159.4 50.7528 157.408L51.8888 157.2C52.0888 158.488 52.9288 159.168 54.4088 159.168C55.9448 159.168 56.7688 158.552 56.7688 157.56C56.7688 156.472 55.9448 156.072 54.8808 156.072H53.5208V155.072H54.8808C55.9048 155.072 56.5448 154.632 56.5448 153.792C56.5448 152.784 55.8728 152.192 54.4248 152.192C52.9608 152.192 52.3048 152.856 52.0328 153.888L50.8968 153.68C51.3848 151.744 52.8248 151.12 54.4568 151.12C56.5288 151.12 57.7208 152.12 57.7208 153.728C57.7208 154.632 57.2728 155.224 56.5448 155.528C57.3208 155.768 57.9448 156.528 57.9448 157.56C57.9448 159.144 56.6728 160.24 54.4488 160.24ZM60.5468 160H59.3708V151.36H60.5468V155.12H65.4188V151.36H66.5948V160H65.4188V156.24H60.5468V160ZM71.8799 151.12C74.1839 151.12 75.3199 152.312 75.3199 154.712V160H74.1519V158.544C73.5359 159.648 72.4559 160.24 71.0159 160.24C69.1679 160.24 68.0319 159.288 68.0319 157.736C68.0319 155.92 69.4319 155.224 71.5519 154.96L74.1519 154.632C74.1519 152.936 73.4399 152.2 71.8639 152.2C70.5519 152.2 69.7679 152.728 69.4719 153.824L68.3599 153.56C68.7679 151.984 70.0159 151.12 71.8799 151.12ZM74.1519 155.608L71.6639 155.912C69.9039 156.136 69.1999 156.64 69.1999 157.672C69.1999 158.672 69.8879 159.192 71.2239 159.192C72.7199 159.192 73.7679 158.328 74.0399 156.952C74.1439 156.52 74.1519 155.992 74.1519 155.608ZM78.2585 160H77.0825V151.36H82.6825V152.48H78.2585V160ZM85.0635 163.84H83.8875V151.36H85.0635V152.808C85.6315 151.752 86.6155 151.12 88.0635 151.12C90.5195 151.12 91.9995 153 91.9995 155.672C91.9995 158.392 90.4955 160.24 88.0635 160.24C86.6075 160.24 85.6315 159.6 85.0635 158.552V163.84ZM87.9035 159.112C89.8235 159.112 90.7515 157.712 90.7515 155.672C90.7515 153.592 89.8075 152.248 87.9035 152.248C85.9675 152.248 85.0635 153.656 85.0635 155.672C85.0635 157.752 86.0315 159.112 87.9035 159.112ZM96.8105 151.12C99.1145 151.12 100.25 152.312 100.25 154.712V160H99.0825V158.544C98.4665 159.648 97.3865 160.24 95.9465 160.24C94.0985 160.24 92.9625 159.288 92.9625 157.736C92.9625 155.92 94.3625 155.224 96.4825 154.96L99.0825 154.632C99.0825 152.936 98.3705 152.2 96.7945 152.2C95.4825 152.2 94.6985 152.728 94.4025 153.824L93.2905 153.56C93.6985 151.984 94.9465 151.12 96.8105 151.12ZM99.0825 155.608L96.5945 155.912C94.8345 156.136 94.1305 156.64 94.1305 157.672C94.1305 158.672 94.8185 159.192 96.1545 159.192C97.6505 159.192 98.6985 158.328 98.9705 156.952C99.0745 156.52 99.0825 155.992 99.0825 155.608ZM107.005 160V155.84L102.765 160H101.053L105.629 155.68L101.581 151.36H103.149L107.005 155.52V151.36H108.181V155.52L112.037 151.36H113.605L109.557 155.68L114.133 160H112.421L108.181 155.84V160H107.005ZM114.459 161.816V158.88H115.299C115.827 158.248 115.971 156.648 115.971 154.664V151.36H122.243V158.88H123.363V161.816H122.187V160H115.635V161.816H114.459ZM116.571 158.88H121.067V152.48H117.083V155.32C117.083 156.88 116.883 158.232 116.571 158.88ZM128.295 159.128C129.583 159.128 130.431 158.52 130.943 157.464L132.055 157.872C131.367 159.392 130.015 160.24 128.295 160.24C125.791 160.24 124.159 158.456 124.159 155.68C124.159 152.888 125.759 151.12 128.247 151.12C130.839 151.12 132.311 152.968 132.223 156.008H125.415C125.527 157.976 126.599 159.128 128.295 159.128ZM125.439 155.024H130.983C130.839 153.216 129.863 152.208 128.247 152.208C126.647 152.208 125.631 153.24 125.439 155.024ZM134.846 160H133.67V151.36H134.846V155.12H139.718V151.36H140.894V160H139.718V156.24H134.846V160ZM148.499 151.36H149.675V160H148.499V153.224L143.979 160H142.803V151.36H143.979V158.136L148.499 151.36ZM155.257 159.128C156.545 159.128 157.393 158.52 157.905 157.464L159.017 157.872C158.329 159.392 156.977 160.24 155.257 160.24C152.753 160.24 151.121 158.456 151.121 155.68C151.121 152.888 152.721 151.12 155.209 151.12C157.801 151.12 159.273 152.968 159.185 156.008H152.377C152.489 157.976 153.561 159.128 155.257 159.128ZM152.401 155.024H157.945C157.801 153.216 156.825 152.208 155.209 152.208C153.609 152.208 152.593 153.24 152.401 155.024ZM166.523 160.24C164.571 160.24 163.187 159.4 162.827 157.408L163.963 157.2C164.163 158.488 165.003 159.168 166.483 159.168C168.019 159.168 168.843 158.552 168.843 157.56C168.843 156.472 168.019 156.072 166.955 156.072H165.595V155.072H166.955C167.979 155.072 168.619 154.632 168.619 153.792C168.619 152.784 167.947 152.192 166.499 152.192C165.035 152.192 164.379 152.856 164.107 153.888L162.971 153.68C163.459 151.744 164.899 151.12 166.531 151.12C168.603 151.12 169.795 152.12 169.795 153.728C169.795 154.632 169.347 155.224 168.619 155.528C169.395 155.768 170.019 156.528 170.019 157.56C170.019 159.144 168.747 160.24 166.523 160.24ZM174.821 151.12C177.125 151.12 178.261 152.312 178.261 154.712V160H177.093V158.544C176.477 159.648 175.397 160.24 173.957 160.24C172.109 160.24 170.973 159.288 170.973 157.736C170.973 155.92 172.373 155.224 174.493 154.96L177.093 154.632C177.093 152.936 176.381 152.2 174.805 152.2C173.493 152.2 172.709 152.728 172.413 153.824L171.301 153.56C171.709 151.984 172.957 151.12 174.821 151.12ZM177.093 155.608L174.605 155.912C172.845 156.136 172.141 156.64 172.141 157.672C172.141 158.672 172.829 159.192 174.165 159.192C175.661 159.192 176.709 158.328 176.981 156.952C177.085 156.52 177.093 155.992 177.093 155.608ZM182.899 160V151.36H184.075V155.52L187.931 151.36H189.499L185.451 155.68L190.027 160H188.315L184.075 155.84V160H182.899ZM193.877 151.12C196.181 151.12 197.317 152.312 197.317 154.712V160H196.149V158.544C195.533 159.648 194.453 160.24 193.013 160.24C191.165 160.24 190.029 159.288 190.029 157.736C190.029 155.92 191.429 155.224 193.549 154.96L196.149 154.632C196.149 152.936 195.437 152.2 193.861 152.2C192.549 152.2 191.765 152.728 191.469 153.824L190.357 153.56C190.765 151.984 192.013 151.12 193.877 151.12ZM196.149 155.608L193.661 155.912C191.901 156.136 191.197 156.64 191.197 157.672C191.197 158.672 191.885 159.192 193.221 159.192C194.717 159.192 195.765 158.328 196.037 156.952C196.141 156.52 196.149 155.992 196.149 155.608ZM204.071 160V155.84L199.831 160H198.119L202.695 155.68L198.647 151.36H200.215L204.071 155.52V151.36H205.247V155.52L209.103 151.36H210.671L206.623 155.68L211.199 160H209.487L205.247 155.84V160H204.071ZM211.526 161.816V158.88H212.366C212.894 158.248 213.038 156.648 213.038 154.664V151.36H219.31V158.88H220.43V161.816H219.254V160H212.702V161.816H211.526ZM213.638 158.88H218.134V152.48H214.15V155.32C214.15 156.88 213.95 158.232 213.638 158.88ZM224.113 163.84H222.937L224.361 159.984L220.849 151.36H222.097L224.929 158.464L227.553 151.36H228.753L224.113 163.84ZM236.726 160.24C234.342 160.24 232.87 158.624 232.662 156.264H230.99V160H229.814V151.36H230.99V155.096H232.662C232.87 152.696 234.382 151.12 236.726 151.12C239.311 151.12 240.823 153 240.823 155.672C240.823 158.392 239.286 160.24 236.726 160.24ZM236.726 159.112C238.639 159.112 239.575 157.712 239.575 155.672C239.575 153.592 238.622 152.248 236.726 152.248C234.79 152.248 233.886 153.656 233.886 155.672C233.886 157.752 234.854 159.112 236.726 159.112ZM34.288 179H33.112V170.36H39.904V179H38.728V171.48H34.288V179ZM43.0073 182.84H41.8313V170.36H43.0073V171.808C43.5753 170.752 44.5593 170.12 46.0073 170.12C48.4633 170.12 49.9433 172 49.9433 174.672C49.9433 177.392 48.4393 179.24 46.0073 179.24C44.5513 179.24 43.5753 178.6 43.0073 177.552V182.84ZM45.8473 178.112C47.7673 178.112 48.6953 176.712 48.6953 174.672C48.6953 172.592 47.7513 171.248 45.8473 171.248C43.9113 171.248 43.0073 172.656 43.0073 174.672C43.0073 176.752 43.9753 178.112 45.8473 178.112ZM54.9943 179.24C52.4263 179.24 50.9063 177.36 50.9063 174.672C50.9063 171.96 52.4663 170.12 54.9943 170.12C57.5783 170.12 59.0903 171.992 59.0903 174.672C59.0903 177.392 57.5543 179.24 54.9943 179.24ZM54.9943 178.112C56.8823 178.112 57.8423 176.744 57.8423 174.672C57.8423 172.568 56.8743 171.248 54.9943 171.248C53.0903 171.248 52.1543 172.616 52.1543 174.672C52.1543 176.776 53.1383 178.112 54.9943 178.112ZM59.895 180.816V177.88H60.735C61.263 177.248 61.407 175.648 61.407 173.664V170.36H67.679V177.88H68.799V180.816H67.623V179H61.071V180.816H59.895ZM62.007 177.88H66.503V171.48H62.519V174.32C62.519 175.88 62.319 177.232 62.007 177.88ZM73.4424 170.12C75.7464 170.12 76.8824 171.312 76.8824 173.712V179H75.7144V177.544C75.0984 178.648 74.0184 179.24 72.5784 179.24C70.7304 179.24 69.5944 178.288 69.5944 176.736C69.5944 174.92 70.9944 174.224 73.1144 173.96L75.7144 173.632C75.7144 171.936 75.0024 171.2 73.4264 171.2C72.1144 171.2 71.3304 171.728 71.0344 172.824L69.9224 172.56C70.3304 170.984 71.5784 170.12 73.4424 170.12ZM75.7144 174.608L73.2264 174.912C71.4664 175.136 70.7624 175.64 70.7624 176.672C70.7624 177.672 71.4504 178.192 72.7864 178.192C74.2824 178.192 75.3304 177.328 75.6024 175.952C75.7064 175.52 75.7144 174.992 75.7144 174.608ZM79.813 179H78.637V170.36H79.813V174.12H84.685V170.36H85.861V179H84.685V175.24H79.813V179ZM88.9461 179H87.7701V170.36H88.9461V174.12H93.8181V170.36H94.9941V179H93.8181V175.24H88.9461V179ZM99.3192 182.84H98.1432L99.5672 178.984L96.0552 170.36H97.3032L100.135 177.464L102.759 170.36H103.959L99.3192 182.84ZM111.933 179.24C109.549 179.24 108.077 177.624 107.869 175.264H106.197V179H105.021V170.36H106.197V174.096H107.869C108.077 171.696 109.589 170.12 111.933 170.12C114.517 170.12 116.029 172 116.029 174.672C116.029 177.392 114.493 179.24 111.933 179.24ZM111.933 178.112C113.845 178.112 114.781 176.712 114.781 174.672C114.781 172.592 113.829 171.248 111.933 171.248C109.997 171.248 109.093 172.656 109.093 174.672C109.093 176.752 110.061 178.112 111.933 178.112ZM121.526 179H120.35V170.36H127.142V179H125.966V171.48H121.526V179ZM132.677 179.24C130.109 179.24 128.589 177.36 128.589 174.672C128.589 171.96 130.149 170.12 132.677 170.12C135.261 170.12 136.773 171.992 136.773 174.672C136.773 177.392 135.237 179.24 132.677 179.24ZM132.677 178.112C134.565 178.112 135.525 176.744 135.525 174.672C135.525 172.568 134.557 171.248 132.677 171.248C130.773 171.248 129.837 172.616 129.837 174.672C129.837 176.776 130.821 178.112 132.677 178.112ZM144.517 179H141.093V170.36H144.429C146.453 170.36 147.533 171.152 147.533 172.68C147.533 173.64 147.037 174.256 146.317 174.528C147.125 174.76 147.781 175.544 147.781 176.616C147.781 178.176 146.645 179 144.517 179ZM144.413 171.368H142.205V174.096H144.733C145.709 174.096 146.373 173.68 146.373 172.784C146.373 171.776 145.829 171.368 144.413 171.368ZM142.213 177.992H144.493C145.909 177.992 146.621 177.56 146.621 176.568C146.621 175.488 145.829 175.088 144.829 175.088H142.213V177.992ZM152.43 170.12C154.734 170.12 155.87 171.312 155.87 173.712V179H154.702V177.544C154.086 178.648 153.006 179.24 151.566 179.24C149.718 179.24 148.582 178.288 148.582 176.736C148.582 174.92 149.982 174.224 152.102 173.96L154.702 173.632C154.702 171.936 153.99 171.2 152.414 171.2C151.102 171.2 150.318 171.728 150.022 172.824L148.91 172.56C149.318 170.984 150.566 170.12 152.43 170.12ZM154.702 174.608L152.214 174.912C150.454 175.136 149.75 175.64 149.75 176.672C149.75 177.672 150.438 178.192 151.774 178.192C153.27 178.192 154.318 177.328 154.59 175.952C154.694 175.52 154.702 174.992 154.702 174.608ZM157.624 179V170.36H158.8V177.88H162.6V170.36H163.776V177.88H167.576V170.36H168.752V179H157.624ZM174.328 178.128C175.616 178.128 176.464 177.52 176.976 176.464L178.088 176.872C177.4 178.392 176.048 179.24 174.328 179.24C171.824 179.24 170.192 177.456 170.192 174.68C170.192 171.888 171.792 170.12 174.28 170.12C176.872 170.12 178.344 171.968 178.256 175.008H171.448C171.56 176.976 172.632 178.128 174.328 178.128ZM171.472 174.024H177.016C176.872 172.216 175.896 171.208 174.28 171.208C172.68 171.208 171.664 172.24 171.472 174.024ZM183.295 169.336C182.551 169.336 181.879 168.944 181.511 168.304C181.327 167.992 181.231 167.648 181.231 167.272H182.207C182.207 167.864 182.703 168.36 183.295 168.36C183.895 168.36 184.383 167.864 184.383 167.272H185.359C185.359 168.016 184.967 168.688 184.335 169.056C184.015 169.24 183.671 169.336 183.295 169.336ZM185.399 170.36H186.575V179H185.399V172.224L180.879 179H179.703V170.36H180.879V177.136L185.399 170.36ZM192.56 182.84H191.384V170.36H192.56V171.808C193.128 170.752 194.112 170.12 195.56 170.12C198.016 170.12 199.496 172 199.496 174.672C199.496 177.392 197.992 179.24 195.56 179.24C194.104 179.24 193.128 178.6 192.56 177.552V182.84ZM195.4 178.112C197.32 178.112 198.248 176.712 198.248 174.672C198.248 172.592 197.304 171.248 195.4 171.248C193.464 171.248 192.56 172.656 192.56 174.672C192.56 176.752 193.528 178.112 195.4 178.112ZM204.595 178.128C205.883 178.128 206.731 177.52 207.243 176.464L208.355 176.872C207.667 178.392 206.315 179.24 204.595 179.24C202.091 179.24 200.459 177.456 200.459 174.68C200.459 171.888 202.059 170.12 204.547 170.12C207.139 170.12 208.611 171.968 208.523 175.008H201.715C201.827 176.976 202.899 178.128 204.595 178.128ZM201.739 174.024H207.283C207.139 172.216 206.163 171.208 204.547 171.208C202.947 171.208 201.931 172.24 201.739 174.024ZM209.97 179V170.36H211.146V174.52L215.002 170.36H216.57L212.522 174.68L217.098 179H215.386L211.146 174.84V179H209.97ZM221.032 179.24C218.464 179.24 216.944 177.36 216.944 174.672C216.944 171.96 218.504 170.12 221.032 170.12C223.616 170.12 225.128 171.992 225.128 174.672C225.128 177.392 223.592 179.24 221.032 179.24ZM221.032 178.112C222.92 178.112 223.88 176.744 223.88 174.672C223.88 172.568 222.912 171.248 221.032 171.248C219.128 171.248 218.192 172.616 218.192 174.672C218.192 176.776 219.176 178.112 221.032 178.112ZM227.74 179H226.564V170.36H227.74L230.82 176.456L233.908 170.36H235.076V179H233.908V172.704L231.348 177.792H230.3L227.74 172.704V179ZM240.659 178.128C241.947 178.128 242.795 177.52 243.307 176.464L244.419 176.872C243.731 178.392 242.379 179.24 240.659 179.24C238.155 179.24 236.523 177.456 236.523 174.68C236.523 171.888 238.123 170.12 240.611 170.12C243.203 170.12 244.675 171.968 244.587 175.008H237.779C237.891 176.976 238.963 178.128 240.659 178.128ZM237.803 174.024H243.347C243.203 172.216 242.227 171.208 240.611 171.208C239.011 171.208 237.995 172.24 237.803 174.024ZM247.21 179H246.034V170.36H247.21V174.12H252.082V170.36H253.258V179H252.082V175.24H247.21V179ZM254.535 180.816V177.88H255.375C255.903 177.248 256.047 175.648 256.047 173.664V170.36H262.319V177.88H263.439V180.816H262.263V179H255.711V180.816H254.535ZM256.647 177.88H261.143V171.48H257.159V174.32C257.159 175.88 256.959 177.232 256.647 177.88ZM268.082 170.12C270.386 170.12 271.522 171.312 271.522 173.712V179H270.354V177.544C269.738 178.648 268.658 179.24 267.218 179.24C265.37 179.24 264.234 178.288 264.234 176.736C264.234 174.92 265.634 174.224 267.754 173.96L270.354 173.632C270.354 171.936 269.642 171.2 268.066 171.2C266.754 171.2 265.97 171.728 265.674 172.824L264.562 172.56C264.97 170.984 266.218 170.12 268.082 170.12ZM270.354 174.608L267.866 174.912C266.106 175.136 265.402 175.64 265.402 176.672C265.402 177.672 266.09 178.192 267.426 178.192C268.922 178.192 269.97 177.328 270.242 175.952C270.346 175.52 270.354 174.992 270.354 174.608ZM281.269 180.816H280.093V179H273.277V170.36H274.453V177.88H278.973V170.36H280.149V177.88H281.269V180.816ZM287.919 170.36H289.095V179H287.919V172.224L283.399 179H282.223V170.36H283.399V177.136L287.919 170.36ZM296.708 170.36H297.884V179H296.708V172.224L292.188 179H291.012V170.36H292.188V177.136L296.708 170.36ZM33.112 198V189.36H34.288V193.52L38.144 189.36H39.712L35.664 193.68L40.24 198H38.528L34.288 193.84V198H33.112ZM44.1379 198H40.7139V189.36H44.0499C46.0739 189.36 47.1539 190.152 47.1539 191.68C47.1539 192.64 46.6579 193.256 45.9379 193.528C46.7459 193.76 47.4019 194.544 47.4019 195.616C47.4019 197.176 46.2659 198 44.1379 198ZM44.0339 190.368H41.8259V193.096H44.3539C45.3299 193.096 45.9939 192.68 45.9939 191.784C45.9939 190.776 45.4499 190.368 44.0339 190.368ZM41.8339 196.992H44.1139C45.5299 196.992 46.2419 196.56 46.2419 195.568C46.2419 194.488 45.4499 194.088 44.4499 194.088H41.8339V196.992ZM52.0511 189.12C54.3551 189.12 55.4911 190.312 55.4911 192.712V198H54.3231V196.544C53.7071 197.648 52.6271 198.24 51.1871 198.24C49.3391 198.24 48.2031 197.288 48.2031 195.736C48.2031 193.92 49.6031 193.224 51.7231 192.96L54.3231 192.632C54.3231 190.936 53.6111 190.2 52.0351 190.2C50.7231 190.2 49.9391 190.728 49.6431 191.824L48.5311 191.56C48.9391 189.984 50.1871 189.12 52.0511 189.12ZM54.3231 193.608L51.8351 193.912C50.0751 194.136 49.3711 194.64 49.3711 195.672C49.3711 196.672 50.0591 197.192 51.3951 197.192C52.8911 197.192 53.9391 196.328 54.2111 194.952C54.3151 194.52 54.3231 193.992 54.3231 193.608ZM58.4298 201.84H57.2538V189.36H58.4298V190.808C58.9978 189.752 59.9818 189.12 61.4298 189.12C63.8858 189.12 65.3658 191 65.3658 193.672C65.3658 196.392 63.8618 198.24 61.4298 198.24C59.9738 198.24 58.9978 197.6 58.4298 196.552V201.84ZM61.2698 197.112C63.1898 197.112 64.1178 195.712 64.1178 193.672C64.1178 191.592 63.1738 190.248 61.2698 190.248C59.3338 190.248 58.4298 191.656 58.4298 193.672C58.4298 195.752 59.3978 197.112 61.2698 197.112ZM70.3048 198H69.1288V190.48H66.0888V189.36H73.3448V190.48H70.3048V198ZM80.2393 189.36H81.4153V198H80.2393V191.224L75.7193 198H74.5433V189.36H75.7193V196.136L80.2393 189.36ZM84.5166 201.84H83.3406V189.36H84.5166V190.808C85.0846 189.752 86.0686 189.12 87.5166 189.12C89.9726 189.12 91.4526 191 91.4526 193.672C91.4526 196.392 89.9486 198.24 87.5166 198.24C86.0606 198.24 85.0846 197.6 84.5166 196.552V201.84ZM87.3566 197.112C89.2766 197.112 90.2046 195.712 90.2046 193.672C90.2046 191.592 89.2606 190.248 87.3566 190.248C85.4206 190.248 84.5166 191.656 84.5166 193.672C84.5166 195.752 85.4846 197.112 87.3566 197.112ZM95.038 201.84H93.862L95.286 197.984L91.774 189.36H93.022L95.854 196.464L98.478 189.36H99.678L95.038 201.84Z" fill="white"/>
</svg>
