<svg width="15" height="17" viewBox="0 0 15 17" fill="none" xmlns="http://www.w3.org/2000/svg">
<path d="M7.35956 16H9.86382V2.27768C9.86382 1.56218 9.30164 1 8.58614 1H6.6185C5.903 1 5.34082 1.56218 5.34082 2.27768V5.42078" stroke="#BF6128" stroke-miterlimit="10" stroke-linecap="round" stroke-linejoin="round"/>
<path d="M6.79725 5.39551H3.16863C2.86198 5.39551 2.60645 5.65104 2.60645 5.95769V16.0003H7.35943V5.95769C7.35943 5.65104 7.10389 5.39551 6.79725 5.39551Z" stroke="#BF6128" stroke-miterlimit="10" stroke-linecap="round" stroke-linejoin="round"/>
<path d="M14.2846 15.9998H9.86377V3.81067H12.9047C13.6713 3.81067 14.2846 4.42396 14.2846 5.19057V15.9998Z" stroke="#BF6128" stroke-miterlimit="10" stroke-linecap="round" stroke-linejoin="round"/>
<path d="M12.1875 6.625H12.443" stroke="#BF6128" stroke-miterlimit="10" stroke-linecap="round" stroke-linejoin="round"/>
<path d="M12.1875 7.95337H12.443" stroke="#BF6128" stroke-miterlimit="10" stroke-linecap="round" stroke-linejoin="round"/>
<path d="M12.1875 9.18018H12.443" stroke="#BF6128" stroke-miterlimit="10" stroke-linecap="round" stroke-linejoin="round"/>
<path d="M12.1875 10.5343H12.443" stroke="#BF6128" stroke-miterlimit="10" stroke-linecap="round" stroke-linejoin="round"/>
<path d="M2.60655 15.9999H0.715576V8.87045C0.715576 8.48715 1.02222 8.20605 1.37997 8.20605H2.58099" stroke="#BF6128" stroke-miterlimit="10" stroke-linecap="round" stroke-linejoin="round"/>
</svg>
