<svg width="45" height="48" viewBox="0 0 45 48" fill="none" xmlns="http://www.w3.org/2000/svg">
<path d="M38.725 31.4617V8.96172V3.93672C38.725 2.73672 37.75 1.76172 36.55 1.76172H3.175C1.975 1.76172 1 2.73672 1 3.93672V8.96172V31.9117C1 33.1117 1.975 34.0867 3.175 34.0867H26.575" stroke="#BF6128" stroke-width="2" stroke-miterlimit="10" stroke-linecap="round" stroke-linejoin="round"/>
<path d="M1 8.96094H38.8" stroke="#BF6128" stroke-width="2" stroke-miterlimit="10" stroke-linecap="round" stroke-linejoin="round"/>
<path d="M13.375 18.9375V29.8125H17.575H22.225H25.225" stroke="#BF6128" stroke-width="2" stroke-miterlimit="10" stroke-linecap="round" stroke-linejoin="round"/>
<path d="M26.4258 27.4875V18.9375" stroke="#BF6128" stroke-width="2" stroke-miterlimit="10" stroke-linecap="round" stroke-linejoin="round"/>
<path d="M29.2016 21.4863L19.9016 12.8613L10.6016 21.4863" stroke="#BF6128" stroke-width="2" stroke-miterlimit="10" stroke-linecap="round" stroke-linejoin="round"/>
<path d="M22.2992 23.2109H17.5742V29.8109H22.2992V23.2109Z" stroke="#BF6128" stroke-width="2" stroke-miterlimit="10" stroke-linecap="round" stroke-linejoin="round"/>
<path d="M28.4492 5.51172H30.3992" stroke="#BF6128" stroke-width="2" stroke-miterlimit="10" stroke-linecap="round" stroke-linejoin="round"/>
<path d="M33.5508 5.51172H35.4258" stroke="#BF6128" stroke-width="2" stroke-miterlimit="10" stroke-linecap="round" stroke-linejoin="round"/>
<path d="M34.825 40.0875L40.45 45.7125L43.15 43.0125L37.525 37.3125L43.75 33.1125L24.25 26.8125L30.55 46.2375L34.825 40.0875Z" stroke="#BF6128" stroke-width="2" stroke-miterlimit="10" stroke-linecap="round" stroke-linejoin="round"/>
</svg>
