<svg width="40" height="48" viewBox="0 0 40 48" fill="none" xmlns="http://www.w3.org/2000/svg">
<path d="M36.1032 29.7205H3.41286C2.08968 29.7205 1 28.6308 1 27.3076V25.284C1 23.9608 2.08968 22.8711 3.41286 22.8711H36.1032C37.4264 22.8711 38.5161 23.9608 38.5161 25.284V27.3076C38.4382 28.6308 37.4264 29.7205 36.1032 29.7205Z" stroke="#BF6128" stroke-width="2" stroke-miterlimit="10" stroke-linecap="round" stroke-linejoin="round"/>
<path d="M24.0384 5.66992C26.3734 6.37043 28.475 7.69361 30.1873 9.32813C32.8337 11.9745 34.4682 15.7105 34.4682 19.7579V22.9491H5.04688V19.7579C5.04688 13.142 9.48342 7.53794 15.4767 5.66992" stroke="#BF6128" stroke-width="2" stroke-miterlimit="10" stroke-linecap="round" stroke-linejoin="round"/>
<path d="M15.4766 17.0338V3.41286C15.4766 2.08968 16.5662 1 17.8894 1H21.6255C22.9486 1 24.0383 2.08968 24.0383 3.41286V17.0338" stroke="#BF6128" stroke-width="2" stroke-miterlimit="10" stroke-linecap="round" stroke-linejoin="round"/>
<path d="M34.4685 29.7207V35.0913H29.6428C29.4093 35.9474 29.0979 36.7258 28.7088 37.4263L32.1335 40.851L28.3196 44.6649L24.8949 41.2402C24.1944 41.6293 23.3382 42.0185 22.5599 42.1742V46.9999H17.1115V42.1742C16.2553 41.9407 15.4769 41.6293 14.7764 41.2402L11.3517 44.6649L7.53786 40.851L10.9626 37.4263C10.5734 36.7258 10.1842 35.8696 9.95072 35.0913H5.125V29.7207" stroke="#BF6128" stroke-width="2" stroke-miterlimit="10" stroke-linecap="round" stroke-linejoin="round"/>
<path d="M24.585 32.3672C24.585 35.0135 22.4057 37.1929 19.7593 37.1929C17.113 37.1929 14.9336 35.0135 14.9336 32.3672" stroke="#BF6128" stroke-width="2" stroke-miterlimit="10" stroke-linecap="round" stroke-linejoin="round"/>
</svg>
