<svg width="24" height="24" viewBox="0 0 24 24" fill="none" xmlns="http://www.w3.org/2000/svg">
<path fill-rule="evenodd" clip-rule="evenodd" d="M19.7146 1.71485H22.286C22.286 2.57199 21.9997 3.14285 21.4289 3.42914V7.37199C21.4289 7.46292 21.3927 7.55013 21.3284 7.61443C21.2641 7.67873 21.1769 7.71485 21.086 7.71485H20.174C20.0328 7.71478 19.8939 7.67984 19.7695 7.61315C19.6451 7.54646 19.5391 7.45008 19.4609 7.33256L18.8831 6.46685L18.3071 8.39371L19.6494 15.1051C19.0494 15.7737 18.3671 16.3566 17.6266 16.8434C16.4403 13.6154 14.5649 12.0006 12.0003 12.0006C9.43571 12.0006 7.55857 13.6154 6.37571 16.8434C5.62829 16.3536 4.94773 15.7687 4.35114 15.1034L5.44828 9.61256C5.60404 8.83535 6.02428 8.13612 6.63751 7.63386C7.25073 7.13159 8.01904 6.85731 8.81171 6.85771H13.0734C13.4519 5.38461 14.3102 4.07949 15.5127 3.14825C16.7152 2.21702 18.1936 1.71269 19.7146 1.71485ZM1.99399 10.876C1.80807 10.4163 1.71317 9.92496 1.71456 9.42914C1.71456 7.53485 3.05856 6.00056 4.71456 6.00056C5.21685 6.00056 5.69171 6.14114 6.10656 6.39142C5.25903 6.96502 4.64484 7.82307 4.37514 8.81028L3.74428 11.1297C3.1499 11.1735 2.55312 11.0869 1.99571 10.876H1.99399ZM0.857422 16.6823L2.02314 15.4291C4.29799 18.28 7.92028 20.1246 12.0003 20.1246C16.0803 20.1246 19.7026 18.28 21.9774 15.4291L23.1431 16.6823C21.0894 20.5154 16.8706 23.1434 12.0003 23.1434C7.12999 23.1434 2.91114 20.5154 0.857422 16.6823Z" fill="white"/>
</svg>
