<svg width="48" height="48" viewBox="0 0 48 48" fill="none" xmlns="http://www.w3.org/2000/svg">
<path d="M40.725 31.4617V8.96172V3.93672C40.725 2.73672 39.75 1.76172 38.55 1.76172H5.175C3.975 1.76172 3 2.73672 3 3.93672V8.96172V31.9117C3 33.1117 3.975 34.0867 5.175 34.0867H28.575" stroke="#BF6128" stroke-width="2" stroke-miterlimit="10" stroke-linecap="round" stroke-linejoin="round"/>
<path d="M3 8.96094H40.8" stroke="#BF6128" stroke-width="2" stroke-miterlimit="10" stroke-linecap="round" stroke-linejoin="round"/>
<path d="M15.375 18.9375V29.8125H19.575H24.225H27.225" stroke="#BF6128" stroke-width="2" stroke-miterlimit="10" stroke-linecap="round" stroke-linejoin="round"/>
<path d="M28.425 27.4875V18.9375" stroke="#BF6128" stroke-width="2" stroke-miterlimit="10" stroke-linecap="round" stroke-linejoin="round"/>
<path d="M31.2 21.4863L21.9 12.8613L12.6 21.4863" stroke="#BF6128" stroke-width="2" stroke-miterlimit="10" stroke-linecap="round" stroke-linejoin="round"/>
<path d="M24.3 23.2109H19.575V29.8109H24.3V23.2109Z" stroke="#BF6128" stroke-width="2" stroke-miterlimit="10" stroke-linecap="round" stroke-linejoin="round"/>
<path d="M30.45 5.51172H32.4" stroke="#BF6128" stroke-width="2" stroke-miterlimit="10" stroke-linecap="round" stroke-linejoin="round"/>
<path d="M35.55 5.51172H37.425" stroke="#BF6128" stroke-width="2" stroke-miterlimit="10" stroke-linecap="round" stroke-linejoin="round"/>
<path d="M36.825 40.0875L42.45 45.7125L45.15 43.0125L39.525 37.3125L45.75 33.1125L26.25 26.8125L32.55 46.2375L36.825 40.0875Z" stroke="#BF6128" stroke-width="2" stroke-miterlimit="10" stroke-linecap="round" stroke-linejoin="round"/>
</svg>
