<svg width="48" height="48" viewBox="0 0 48 48" fill="none" xmlns="http://www.w3.org/2000/svg">
<path d="M41.1325 47H7.08778C5.34596 47 4 45.654 4 43.9122V4.08778C4 2.34596 5.34596 1 7.08778 1H41.1325C42.8744 1 44.2203 2.34596 44.2203 4.08778V43.9122C44.2203 45.654 42.8744 47 41.1325 47Z" stroke="#BF6128" stroke-width="2" stroke-miterlimit="10" stroke-linecap="round" stroke-linejoin="round"/>
<path d="M4 19.9235C4 19.9235 21.8933 15.9648 44.2995 19.9235" stroke="#BF6128" stroke-width="2" stroke-miterlimit="10" stroke-linecap="round" stroke-linejoin="round"/>
<path d="M19.3597 13.9859H11.284C10.0172 13.9859 8.98792 12.9566 8.98792 11.6898V8.2062C8.98792 6.93942 10.0172 5.91016 11.284 5.91016H19.3597C20.6265 5.91016 21.6557 6.93942 21.6557 8.2062V11.6898C21.6557 12.9566 20.6265 13.9859 19.3597 13.9859Z" stroke="#BF6128" stroke-width="2" stroke-miterlimit="10" stroke-linecap="round" stroke-linejoin="round"/>
<path d="M36.9363 13.9859H28.8606C27.5938 13.9859 26.5646 12.9566 26.5646 11.6898V8.2062C26.5646 6.93942 27.5938 5.91016 28.8606 5.91016H37.0155C38.2823 5.91016 39.3116 6.93942 39.3116 8.2062V11.6898C39.2324 12.9566 38.2031 13.9859 36.9363 13.9859Z" stroke="#BF6128" stroke-width="2" stroke-miterlimit="10" stroke-linecap="round" stroke-linejoin="round"/>
</svg>
