<svg width="48" height="48" viewBox="0 0 48 48" fill="none" xmlns="http://www.w3.org/2000/svg">
<g clip-path="url(#clip0_1518_17448)">
<path d="M30.0681 16.1529V7.54154H31.3886C31.7855 7.54154 31.9718 7.13649 31.6721 6.91777L29.4119 5.28947V1.93566H26.6981V3.33713L23.5549 1.08506C23.3929 0.971647 23.158 0.971647 22.996 1.08506L14.733 6.91777C14.4251 7.12839 14.6033 7.54154 15.0084 7.54154H16.5557V16.1529H30.0681Z" stroke="#BF6128" stroke-width="2" stroke-miterlimit="10" stroke-linecap="round" stroke-linejoin="round"/>
<path d="M16.4909 39.1766V30.5653H17.8113C18.2083 30.5653 18.3946 30.1602 18.0949 29.9415L15.8347 28.3051V24.9513H13.1209V26.3528L9.97768 24.1007C9.81566 23.9873 9.58074 23.9873 9.41872 24.1007L1.15572 29.9334C0.847881 30.144 1.0261 30.5572 1.43115 30.5572H2.97844V39.1685H16.4909V39.1766Z" stroke="#BF6128" stroke-width="2" stroke-miterlimit="10" stroke-linecap="round" stroke-linejoin="round"/>
<path d="M44.7066 39.1766V30.5653H46.027C46.424 30.5653 46.6103 30.1602 46.3106 29.9415L44.0504 28.3051V24.9513H41.3366V26.3528L38.1934 24.1007C38.0314 23.9873 37.7964 23.9873 37.6344 24.1007L29.3714 29.9334C29.0636 30.144 29.2418 30.5572 29.6468 30.5572H31.1941V39.1685H44.7066V39.1766Z" stroke="#BF6128" stroke-width="2" stroke-miterlimit="10" stroke-linecap="round" stroke-linejoin="round"/>
<path d="M3.63469 22.6902C3.63469 22.6902 1.71475 16.979 9.22436 13.1797" stroke="#BF6128" stroke-width="2" stroke-miterlimit="10" stroke-linecap="round" stroke-linejoin="round"/>
<path d="M10.4811 12.4297L10.2445 12.9697L9.96595 12.4297H10.4811Z" stroke="#BF6128" stroke-width="2" stroke-miterlimit="10" stroke-linecap="round" stroke-linejoin="round"/>
<path d="M33.673 11.041C33.673 11.041 40.4536 11.8754 41.9846 18.2428" stroke="#BF6128" stroke-width="2" stroke-miterlimit="10" stroke-linecap="round" stroke-linejoin="round"/>
<path d="M42.5684 19.5853L42.0754 19.2551L42.6607 19.0752L42.5684 19.5853Z" stroke="#BF6128" stroke-width="2" stroke-miterlimit="10" stroke-linecap="round" stroke-linejoin="round"/>
<path d="M31.818 43.793C31.818 43.793 28.0753 50.3143 19.4235 44.757" stroke="#BF6128" stroke-width="2" stroke-miterlimit="10" stroke-linecap="round" stroke-linejoin="round"/>
<path d="M17.9611 44.4726L18.5261 44.3076L18.2899 44.867L17.9611 44.4726Z" stroke="#BF6128" stroke-width="2" stroke-miterlimit="10" stroke-linecap="round" stroke-linejoin="round"/>
</g>
<defs>
<clipPath id="clip0_1518_17448">
<rect width="48" height="48" fill="white"/>
</clipPath>
</defs>
</svg>
