<svg width="48" height="48" viewBox="0 0 48 48" fill="none" xmlns="http://www.w3.org/2000/svg">
<path d="M7.97498 11.1016V27.0016H14.125H21.025H24.175" stroke="#BF6128" stroke-width="2" stroke-miterlimit="10" stroke-linecap="round" stroke-linejoin="round"/>
<path d="M27.1 24.0766V11.1016" stroke="#BF6128" stroke-width="2" stroke-miterlimit="10" stroke-linecap="round" stroke-linejoin="round"/>
<path d="M31.15 14.8508L17.575 2.17578L4 14.8508" stroke="#BF6128" stroke-width="2" stroke-miterlimit="10" stroke-linecap="round" stroke-linejoin="round"/>
<path d="M21.025 17.3262H14.125V27.0762H21.025V17.3262Z" stroke="#BF6128" stroke-width="2" stroke-miterlimit="10" stroke-linecap="round" stroke-linejoin="round"/>
<path d="M29.125 45.8254L17.275 33.9004L33.1 18.1504L44.875 18.2254L44.95 30.0004L29.125 45.8254Z" stroke="#BF6128" stroke-width="2" stroke-miterlimit="10" stroke-linecap="round" stroke-linejoin="round"/>
<path d="M30.25 29.7758C31.4512 29.7758 32.425 28.802 32.425 27.6008C32.425 26.3996 31.4512 25.4258 30.25 25.4258C29.0488 25.4258 28.075 26.3996 28.075 27.6008C28.075 28.802 29.0488 29.7758 30.25 29.7758Z" stroke="#BF6128" stroke-width="2" stroke-miterlimit="10" stroke-linecap="round" stroke-linejoin="round"/>
<path d="M32.425 38.0266C32.425 39.2266 31.45 40.2016 30.25 40.2016C29.05 40.2016 28.075 39.2266 28.075 38.0266C28.075 36.8266 29.05 35.8516 30.25 35.8516C31.45 35.8516 32.425 36.8266 32.425 38.0266Z" stroke="#BF6128" stroke-width="2" stroke-miterlimit="10" stroke-linecap="round" stroke-linejoin="round"/>
<path d="M24.1 32.625H36.4" stroke="#BF6128" stroke-width="2" stroke-miterlimit="10" stroke-linecap="round" stroke-linejoin="round"/>
</svg>
