<svg width="48" height="49" viewBox="0 0 48 49" fill="none" xmlns="http://www.w3.org/2000/svg">
<path d="M2.23883 45.7744C2.54854 43.8387 4.71649 43.9936 4.71649 43.9936C4.71649 43.9936 4.87134 42.5225 6.26502 42.2128C6.41988 42.2128 6.49731 42.1353 6.65216 42.1353C6.65216 42.1353 6.72959 41.3611 7.50385 40.9739C7.73613 40.8965 7.96841 40.8191 8.27812 40.7417C9.51695 40.5868 10.2912 41.5159 10.2912 42.3676C10.2912 42.3676 12.072 41.9031 12.4592 43.9936C12.4592 43.9936 14.1626 43.6064 14.1626 45.8518" stroke="#BF6128" stroke-width="2" stroke-miterlimit="10" stroke-linecap="round" stroke-linejoin="round"/>
<path d="M14.8594 17.2812L12.7689 20.4557" stroke="#BF6128" stroke-width="2" stroke-miterlimit="10" stroke-linecap="round" stroke-linejoin="round"/>
<path d="M18.7307 15.6562L16.6402 18.8307" stroke="#BF6128" stroke-width="2" stroke-miterlimit="10" stroke-linecap="round" stroke-linejoin="round"/>
<path d="M25.7766 9.77157H4.79395V28.5089L27.9446 20.921C28.8737 20.6113 29.3382 19.5274 29.0285 18.5208L23.9184 4.81626C23.6861 4.19684 24.1506 3.5 24.7701 3.5H46.0624C46.6044 3.5 47.069 4.04199 46.9916 4.58398L39.4812 45.775H45.5204V12.4815" stroke="#BF6128" stroke-width="2" stroke-miterlimit="10" stroke-linecap="round" stroke-linejoin="round"/>
<path d="M4.79391 9.7723H3.47766C3.16795 9.7723 2.93567 9.54002 2.93567 9.23031V7.37207C2.93567 7.06236 3.16795 6.83008 3.47766 6.83008H24.6926" stroke="#BF6128" stroke-width="2" stroke-miterlimit="10" stroke-linecap="round" stroke-linejoin="round"/>
<path d="M4.79395 28.5096V30.4453C4.79395 31.1421 5.49079 31.6841 6.1102 31.4518L29.4931 23.2446C31.5836 22.4703 32.6676 19.9926 31.8159 17.8247L28.0994 8.06891C27.7897 7.44949 28.1768 6.83008 28.7188 6.83008H42.8105C43.2751 6.83008 43.6622 7.29464 43.5848 7.83663L36.0744 45.8532H39.4812" stroke="#BF6128" stroke-width="2" stroke-miterlimit="10" stroke-linecap="round" stroke-linejoin="round"/>
<path d="M46.9915 45.7734H1" stroke="#BF6128" stroke-width="2" stroke-miterlimit="10" stroke-linecap="round" stroke-linejoin="round"/>
<path d="M7.27155 41.1299V31.0645" stroke="#BF6128" stroke-width="2" stroke-miterlimit="10" stroke-linecap="round" stroke-linejoin="round"/>
<path d="M21.4407 26.1094V45.7758" stroke="#BF6128" stroke-width="2" stroke-miterlimit="10" stroke-linecap="round" stroke-linejoin="round"/>
<path d="M23.8409 25.1797V45.7752" stroke="#BF6128" stroke-width="2" stroke-miterlimit="10" stroke-linecap="round" stroke-linejoin="round"/>
<path d="M26.3186 24.3281V45.7754" stroke="#BF6128" stroke-width="2" stroke-miterlimit="10" stroke-linecap="round" stroke-linejoin="round"/>
<path d="M21.3632 38.6523H17.5693V45.7756H21.3632V38.6523Z" stroke="#BF6128" stroke-width="2" stroke-miterlimit="10" stroke-linecap="round" stroke-linejoin="round"/>
</svg>
