<svg width="48" height="48" viewBox="0 0 48 48" fill="none" xmlns="http://www.w3.org/2000/svg">
<path d="M44.95 4.01172V44.8867H4V36.7117H12.175V28.5367H20.35V20.3617H28.6V12.1867H36.775V4.01172H44.95Z" stroke="#BF6128" stroke-width="2" stroke-miterlimit="10" stroke-linecap="round" stroke-linejoin="round"/>
<path d="M36.925 28.8379H28.75V44.9629H36.925V28.8379Z" stroke="#BF6128" stroke-width="2" stroke-miterlimit="10" stroke-linecap="round" stroke-linejoin="round"/>
<path d="M4.375 21.2621C4.375 19.2371 6.025 17.6621 7.975 17.6621H8.35C10.375 17.6621 11.95 19.3121 11.95 21.2621H4.375Z" stroke="#BF6128" stroke-width="2" stroke-miterlimit="10" stroke-linecap="round" stroke-linejoin="round"/>
<path d="M8.2 17.5871V3.03711" stroke="#BF6128" stroke-width="2" stroke-miterlimit="10" stroke-linecap="round" stroke-linejoin="round"/>
<path d="M13.825 15.0375C13.825 13.0125 15.475 11.4375 17.425 11.4375H17.8C19.825 11.4375 21.4 13.0875 21.4 15.0375H13.825Z" stroke="#BF6128" stroke-width="2" stroke-miterlimit="10" stroke-linecap="round" stroke-linejoin="round"/>
<path d="M17.65 11.3621V3.03711" stroke="#BF6128" stroke-width="2" stroke-miterlimit="10" stroke-linecap="round" stroke-linejoin="round"/>
</svg>
