<svg width="48" height="48" viewBox="0 0 48 48" fill="none" xmlns="http://www.w3.org/2000/svg">
<path d="M10.075 39.0758H6.175C4.975 39.0758 4 38.1008 4 36.9008V4.72578C4 3.52578 4.975 2.55078 6.175 2.55078H33.25C34.45 2.55078 35.425 3.52578 35.425 4.72578V7.95078" stroke="#BF6128" stroke-width="2" stroke-miterlimit="10" stroke-linecap="round" stroke-linejoin="round"/>
<path d="M35.425 24.75V36.9C35.425 38.1 34.45 39.075 33.25 39.075H15.625" stroke="#BF6128" stroke-width="2" stroke-miterlimit="10" stroke-linecap="round" stroke-linejoin="round"/>
<path d="M41.8766 13.9512V14.0262V24.7512H28.9766V14.0262" stroke="#BF6128" stroke-width="2" stroke-miterlimit="10" stroke-linecap="round" stroke-linejoin="round"/>
<path d="M44.5734 16.5004L35.4234 8.02539L26.2734 16.5004" stroke="#BF6128" stroke-width="2" stroke-miterlimit="10" stroke-linecap="round" stroke-linejoin="round"/>
<path d="M37.7516 18.2266H33.1016V24.7516H37.7516V18.2266Z" stroke="#BF6128" stroke-width="2" stroke-miterlimit="10" stroke-linecap="round" stroke-linejoin="round"/>
<path d="M12.8508 36.1508C15.2946 36.1508 17.2758 34.1696 17.2758 31.7258C17.2758 29.2819 15.2946 27.3008 12.8508 27.3008C10.4069 27.3008 8.42578 29.2819 8.42578 31.7258C8.42578 34.1696 10.4069 36.1508 12.8508 36.1508Z" stroke="#BF6128" stroke-width="2" stroke-miterlimit="10" stroke-linecap="round" stroke-linejoin="round"/>
<path d="M15.6242 35.1758V45.4508L12.8492 43.0508L10.0742 45.4508V35.1758" stroke="#BF6128" stroke-width="2" stroke-miterlimit="10" stroke-linecap="round" stroke-linejoin="round"/>
<path d="M15.4766 14.625H23.5016" stroke="#BF6128" stroke-width="2" stroke-miterlimit="10" stroke-linecap="round" stroke-linejoin="round"/>
<path d="M13.0742 19.3516H25.8992" stroke="#BF6128" stroke-width="2" stroke-miterlimit="10" stroke-linecap="round" stroke-linejoin="round"/>
<path d="M13.0742 24.0762H25.8992" stroke="#BF6128" stroke-width="2" stroke-miterlimit="10" stroke-linecap="round" stroke-linejoin="round"/>
<path d="M26.1258 6.75H12.9258V10.5H26.1258V6.75Z" stroke="#BF6128" stroke-width="2" stroke-miterlimit="10" stroke-linecap="round" stroke-linejoin="round"/>
<path d="M20.8008 31.2749C20.8008 31.2749 24.1758 29.3249 26.1258 31.2749C28.0758 33.2249 31.5258 31.2749 31.5258 31.2749" stroke="#BF6128" stroke-width="2" stroke-miterlimit="10" stroke-linecap="round" stroke-linejoin="round"/>
</svg>
