<svg width="43" height="46" viewBox="0 0 43 46" fill="none" xmlns="http://www.w3.org/2000/svg">
<path d="M4.97498 10.1003V26.0003H11.125H18.025H21.175" stroke="#BF6128" stroke-width="2" stroke-miterlimit="10" stroke-linecap="round" stroke-linejoin="round"/>
<path d="M24.1 23.0753V10.1003" stroke="#BF6128" stroke-width="2" stroke-miterlimit="10" stroke-linecap="round" stroke-linejoin="round"/>
<path d="M28.15 13.8503L14.575 1.17529L1 13.8503" stroke="#BF6128" stroke-width="2" stroke-miterlimit="10" stroke-linecap="round" stroke-linejoin="round"/>
<path d="M18.025 16.3257H11.125V26.0757H18.025V16.3257Z" stroke="#BF6128" stroke-width="2" stroke-miterlimit="10" stroke-linecap="round" stroke-linejoin="round"/>
<path d="M26.125 44.8249L14.275 32.8999L30.1 17.1499L41.875 17.2249L41.95 28.9999L26.125 44.8249Z" stroke="#BF6128" stroke-width="2" stroke-miterlimit="10" stroke-linecap="round" stroke-linejoin="round"/>
<path d="M27.25 28.7753C28.4512 28.7753 29.425 27.8015 29.425 26.6003C29.425 25.3991 28.4512 24.4253 27.25 24.4253C26.0488 24.4253 25.075 25.3991 25.075 26.6003C25.075 27.8015 26.0488 28.7753 27.25 28.7753Z" stroke="#BF6128" stroke-width="2" stroke-miterlimit="10" stroke-linecap="round" stroke-linejoin="round"/>
<path d="M29.425 37.0253C29.425 38.2253 28.45 39.2003 27.25 39.2003C26.05 39.2003 25.075 38.2253 25.075 37.0253C25.075 35.8253 26.05 34.8503 27.25 34.8503C28.45 34.8503 29.425 35.8253 29.425 37.0253Z" stroke="#BF6128" stroke-width="2" stroke-miterlimit="10" stroke-linecap="round" stroke-linejoin="round"/>
<path d="M21.1 31.6252H33.4" stroke="#BF6128" stroke-width="2" stroke-miterlimit="10" stroke-linecap="round" stroke-linejoin="round"/>
</svg>
