<svg width="24" height="24" viewBox="0 0 24 24" fill="none" xmlns="http://www.w3.org/2000/svg">
<path d="M9.587 4.437C9.5 4.607 9.5 4.832 9.5 5.28V9.5H5.28C4.832 9.5 4.608 9.5 4.437 9.587C4.28627 9.66373 4.16373 9.78627 4.087 9.937C4 10.107 4 10.332 4 10.78V13.22C4 13.668 4 13.892 4.087 14.063C4.16373 14.2137 4.28627 14.3363 4.437 14.413C4.607 14.5 4.832 14.5 5.28 14.5H9.5V18.72C9.5 19.168 9.5 19.392 9.587 19.563C9.66373 19.7137 9.78627 19.8363 9.937 19.913C10.107 20 10.332 20 10.78 20H13.22C13.668 20 13.892 20 14.063 19.913C14.2137 19.8363 14.3363 19.7137 14.413 19.563C14.5 19.393 14.5 19.168 14.5 18.72V14.5H18.72C19.168 14.5 19.392 14.5 19.563 14.413C19.7137 14.3363 19.8363 14.2137 19.913 14.063C20 13.893 20 13.668 20 13.22V10.78C20 10.332 20 10.108 19.913 9.937C19.8363 9.78627 19.7137 9.66373 19.563 9.587C19.393 9.5 19.168 9.5 18.72 9.5H14.5V5.28C14.5 4.832 14.5 4.608 14.413 4.437C14.3363 4.28627 14.2137 4.16373 14.063 4.087C13.893 4 13.668 4 13.22 4H10.78C10.332 4 10.108 4 9.937 4.087C9.78627 4.16373 9.66373 4.28627 9.587 4.437Z" fill="white"/>
</svg>
