<svg width="24" height="24" viewBox="0 0 24 24" fill="none" xmlns="http://www.w3.org/2000/svg">
<path d="M11.5678 2.10787L1.26781 7.54387C1.18711 7.58955 1.11998 7.65584 1.07327 7.73595C1.02656 7.81606 1.00195 7.90713 1.00195 7.99987C1.00195 8.0926 1.02656 8.18367 1.07327 8.26379C1.11998 8.3439 1.18711 8.41018 1.26781 8.45587L11.5678 13.8919C11.7008 13.9625 11.8492 13.9995 11.9998 13.9995C12.1504 13.9995 12.2988 13.9625 12.4318 13.8919L17.3068 11.3199L12.0808 8.90787C11.9399 8.84287 11.816 8.74595 11.719 8.6248C11.622 8.50365 11.5545 8.36158 11.5219 8.20984C11.4893 8.0581 11.4925 7.90086 11.5312 7.75056C11.5699 7.60025 11.643 7.46102 11.7448 7.34387L17.9888 10.3179C18.3811 10.5047 18.7125 10.7989 18.9445 11.1663C19.1765 11.5337 19.2997 11.9593 19.2998 12.3939V14.2859C19.158 14.4249 19.0607 14.603 19.0205 14.7976C18.9803 14.9921 18.9989 15.1942 19.074 15.3781C19.1491 15.562 19.2773 15.7193 19.4422 15.8301C19.607 15.9409 19.8012 16 19.9998 16C20.1984 16 20.3926 15.9409 20.5575 15.8301C20.7223 15.7193 20.8505 15.562 20.9256 15.3781C21.0007 15.1942 21.0193 14.9921 20.9791 14.7976C20.9389 14.603 20.8417 14.4249 20.6998 14.2859V12.3939C20.6998 11.4979 20.3768 10.6519 19.8168 9.99487L22.7328 8.45587C22.8135 8.41018 22.8806 8.3439 22.9273 8.26379C22.974 8.18367 22.9987 8.0926 22.9987 7.99987C22.9987 7.90713 22.974 7.81606 22.9273 7.73595C22.8806 7.65584 22.8135 7.58955 22.7328 7.54387L12.4328 2.10787C12.2996 2.03704 12.1511 2 12.0003 2C11.8495 2 11.701 2.03704 11.5678 2.10787Z" fill="white"/>
<path d="M18 12.5V13.178C17.323 14.844 16.18 17.938 16.014 20.198C14.916 20.669 13.582 21 12 21C6.5 21 4 17 4 17V11.5L11.284 15.142C11.547 15.273 11.678 15.339 11.816 15.365C11.9376 15.3878 12.0624 15.3878 12.184 15.365C12.322 15.339 12.454 15.273 12.716 15.142L18 12.5Z" fill="white"/>
<path d="M21.548 16.2656C21.3605 16.495 21.1244 16.6798 20.8566 16.8066C20.5889 16.9334 20.2963 16.999 20 16.9986C19.7037 16.999 19.4111 16.9334 19.1434 16.8066C18.8756 16.6798 18.6395 16.495 18.452 16.2656C18.024 17.3696 17.5 19.0216 17.5 20.4986C17.5 20.4986 18.5 21.9986 20 21.9986C21.5 21.9986 22.5 20.4986 22.5 20.4986C22.5 19.0216 21.976 17.3696 21.548 16.2656Z" fill="white"/>
</svg>
