<svg width="48" height="40" viewBox="0 0 48 40" fill="none" xmlns="http://www.w3.org/2000/svg">
<path d="M9 16.1V3.875C9 2.45 10.125 1.25 11.625 1.25H44.025C45.45 1.25 46.65 2.375 46.65 3.875V21.65V24.425C46.65 25.85 45.45 27.05 44.025 27.05H24.675" stroke="#BF6128" stroke-width="2" stroke-miterlimit="10" stroke-linecap="round" stroke-linejoin="round"/>
<path d="M46.5749 21.6504H23.3999" stroke="#BF6128" stroke-width="2" stroke-miterlimit="10" stroke-linecap="round" stroke-linejoin="round"/>
<path d="M33.5996 1.3252V21.6502" stroke="#BF6128" stroke-width="2" stroke-miterlimit="10" stroke-linecap="round" stroke-linejoin="round"/>
<path d="M33.6 10.2501L30 12.8001C29.175 13.3251 28.125 12.8001 28.125 11.8251V8.75007C28.125 7.77507 29.25 7.17507 30 7.77507L33.6 10.2501Z" stroke="#BF6128" stroke-width="2" stroke-miterlimit="10" stroke-linecap="round" stroke-linejoin="round"/>
<path d="M33.5996 10.2501L37.2746 12.8001C38.0996 13.3251 39.1496 12.8001 39.1496 11.8251V8.75007C39.1496 7.77507 38.0246 7.17507 37.2746 7.77507L33.5996 10.2501Z" stroke="#BF6128" stroke-width="2" stroke-miterlimit="10" stroke-linecap="round" stroke-linejoin="round"/>
<path d="M13.0498 38.6748C19.4701 38.6748 24.6748 33.4701 24.6748 27.0498C24.6748 20.6295 19.4701 15.4248 13.0498 15.4248C6.62949 15.4248 1.4248 20.6295 1.4248 27.0498C1.4248 33.4701 6.62949 38.6748 13.0498 38.6748Z" stroke="#BF6128" stroke-width="2" stroke-miterlimit="10" stroke-linecap="round" stroke-linejoin="round"/>
<path d="M8.9999 25.4754C10.3668 25.4754 11.4749 24.3673 11.4749 23.0004C11.4749 21.6335 10.3668 20.5254 8.9999 20.5254C7.633 20.5254 6.5249 21.6335 6.5249 23.0004C6.5249 24.3673 7.633 25.4754 8.9999 25.4754Z" stroke="#BF6128" stroke-width="2" stroke-miterlimit="10" stroke-linecap="round" stroke-linejoin="round"/>
<path d="M17.1 33.575C18.4669 33.575 19.575 32.4669 19.575 31.1C19.575 29.7331 18.4669 28.625 17.1 28.625C15.7331 28.625 14.625 29.7331 14.625 31.1C14.625 32.4669 15.7331 33.575 17.1 33.575Z" stroke="#BF6128" stroke-width="2" stroke-miterlimit="10" stroke-linecap="round" stroke-linejoin="round"/>
<path d="M8.25 31.85L17.85 22.25" stroke="#BF6128" stroke-width="2" stroke-miterlimit="10" stroke-linecap="round" stroke-linejoin="round"/>
<path d="M14.625 5.15039H22.05" stroke="#BF6128" stroke-width="2" stroke-miterlimit="10" stroke-linecap="round" stroke-linejoin="round"/>
<path d="M14.625 8.90039H19.05" stroke="#BF6128" stroke-width="2" stroke-miterlimit="10" stroke-linecap="round" stroke-linejoin="round"/>
</svg>
