<svg width="48" height="44" viewBox="0 0 48 44" fill="none" xmlns="http://www.w3.org/2000/svg">
<path d="M7.4248 24.325V11.575C7.4248 8.65 8.6248 6.025 10.4998 4.075C12.4498 2.2 15.0748 1 17.9998 1C23.8498 1 28.5748 5.725 28.5748 11.575V24.325" stroke="#BF6128" stroke-width="2" stroke-miterlimit="10" stroke-linecap="round" stroke-linejoin="round"/>
<path d="M15.1498 21.625L7.4248 24.325L6.5998 24.625C5.0998 25.15 4.0498 26.575 4.0498 28.15V37.675H29.2498" stroke="#BF6128" stroke-width="2" stroke-miterlimit="10" stroke-linecap="round" stroke-linejoin="round"/>
<path d="M20.9248 21.625L28.6498 24.325L29.4748 24.625C30.9748 25.15 32.0248 26.575 32.0248 28.15V30.625" stroke="#BF6128" stroke-width="2" stroke-miterlimit="10" stroke-linecap="round" stroke-linejoin="round"/>
<path d="M24.5994 11.5748H24.9744C25.7244 11.5748 26.3994 12.1748 26.3994 12.9998V14.0498C26.3994 14.6498 25.9494 15.2498 25.3494 15.3998L24.5244 15.6248C24.1494 17.8748 22.7994 20.1998 20.9244 21.5498C20.0244 22.1498 18.9744 22.4498 17.9244 22.4498C16.8744 22.4498 15.8244 22.1498 14.9244 21.5498C12.9744 20.1998 11.6244 17.8748 11.3244 15.6248L10.4994 15.3998C9.89941 15.2498 9.52441 14.6498 9.52441 14.0498V12.9998C9.52441 12.2498 10.1244 11.5748 10.9494 11.5748H11.3244C11.3244 11.5748 17.1744 12.0248 19.7994 8.0498C19.9494 8.1248 21.3744 11.6498 24.5994 11.5748Z" stroke="#BF6128" stroke-width="2" stroke-miterlimit="10" stroke-linecap="round" stroke-linejoin="round"/>
<path d="M9.59961 37.6752V23.5752" stroke="#BF6128" stroke-width="2" stroke-miterlimit="10" stroke-linecap="round" stroke-linejoin="round"/>
<path d="M26.3994 37.6752V23.5752" stroke="#BF6128" stroke-width="2" stroke-miterlimit="10" stroke-linecap="round" stroke-linejoin="round"/>
<path d="M22.3496 22.1504V26.3504C22.3496 27.4004 21.4496 28.3004 20.3996 28.3004H15.6746C14.6246 28.3004 13.7246 27.4004 13.7246 26.3504V22.1504" stroke="#BF6128" stroke-width="2" stroke-miterlimit="10" stroke-linecap="round" stroke-linejoin="round"/>
<path d="M13.7246 34.1504H21.9746" stroke="#BF6128" stroke-width="2" stroke-miterlimit="10" stroke-linecap="round" stroke-linejoin="round"/>
<path d="M45.1496 42.9998H2.84961C2.24961 42.9998 1.72461 42.4748 1.72461 41.8748V38.7998C1.72461 38.1998 2.24961 37.6748 2.84961 37.6748H45.2246C45.8246 37.6748 46.3496 38.1998 46.3496 38.7998V41.8748C46.2746 42.4748 45.8246 42.9998 45.1496 42.9998Z" stroke="#BF6128" stroke-width="2" stroke-miterlimit="10" stroke-linecap="round" stroke-linejoin="round"/>
<path d="M43.425 37.6752V28.4502H34.65L29.25 32.8752V37.6752" stroke="#BF6128" stroke-width="2" stroke-miterlimit="10" stroke-linecap="round" stroke-linejoin="round"/>
<path d="M39.5244 28.4502V25.8252" stroke="#BF6128" stroke-width="2" stroke-miterlimit="10" stroke-linecap="round" stroke-linejoin="round"/>
<path d="M42.0748 22.5254H37.0498V25.9004H42.0748V22.5254Z" stroke="#BF6128" stroke-width="2" stroke-miterlimit="10" stroke-linecap="round" stroke-linejoin="round"/>
<path d="M34.6494 28.4502V37.6752" stroke="#BF6128" stroke-width="2" stroke-miterlimit="10" stroke-linecap="round" stroke-linejoin="round"/>
</svg>
