<svg width="26" height="20" viewBox="0 0 26 20" fill="none" xmlns="http://www.w3.org/2000/svg">
<path d="M17.708 9.08682H5.8906V4.41051H17.708C18.3983 4.41051 18.8783 4.53085 19.1192 4.74094C19.36 4.95106 19.5092 5.34076 19.5092 5.91003V7.58912C19.5092 8.18891 19.36 8.57861 19.1192 8.78873C18.8783 8.99882 18.3983 9.08864 17.708 9.08864V9.08682ZM18.5188 0.00178828H0.878906V20H5.8906V13.4938H15.1267L19.5092 20H25.1213L20.2894 13.4632C22.0708 13.1992 22.8707 12.6533 23.5304 11.7536C24.1901 10.8539 24.521 9.41545 24.521 7.49573V5.99624C24.521 4.85767 24.4004 3.95797 24.1901 3.26839C23.9798 2.57879 23.6204 1.979 23.1098 1.44024C22.5705 0.930242 21.9701 0.571061 21.2493 0.330424C20.5285 0.120334 19.6279 0 18.5188 0V0.00178828Z" fill="white"/>
</svg>
