<svg width="24" height="24" viewBox="0 0 24 24" fill="none" xmlns="http://www.w3.org/2000/svg">
<path fill-rule="evenodd" clip-rule="evenodd" d="M22.2857 10.2835H22.9011C23.2834 10.2835 23.4223 10.3229 23.5611 10.3983C23.6998 10.4711 23.8134 10.584 23.8869 10.7223C23.9606 10.8612 24 11.0001 24 11.3823V12.6132C24 12.9955 23.9606 13.1343 23.8851 13.2732C23.8124 13.4119 23.6995 13.5254 23.5611 13.5989C23.4223 13.6726 23.2834 13.7121 22.9011 13.7121H22.2857V14.9841C22.2857 15.6989 22.2069 15.9835 22.056 16.2629C21.9099 16.539 21.6841 16.7648 21.408 16.9109C21.1954 17.0258 20.9794 17.0995 20.5714 17.1269V17.1406C20.5714 17.5953 20.3908 18.0313 20.0693 18.3528C19.7478 18.6743 19.3118 18.8549 18.8571 18.8549C18.4025 18.8549 17.9665 18.6743 17.645 18.3528C17.3235 18.0313 17.1429 17.5953 17.1429 17.1406V15.5258C17.1402 15.4841 17.1391 15.4424 17.1394 15.4006L17.1429 15.2223V6.85491C17.1429 6.40025 17.3235 5.96422 17.645 5.64273C17.9665 5.32124 18.4025 5.14063 18.8571 5.14062C19.3118 5.14063 19.7478 5.32124 20.0693 5.64273C20.3908 5.96422 20.5714 6.40025 20.5714 6.85491V6.86862C20.976 6.89605 21.1954 6.96977 21.408 7.08462C21.6874 7.23377 21.9069 7.4532 22.056 7.73263C22.2069 8.01205 22.2857 8.29834 22.2857 8.99605V10.2835ZM3.42857 17.1406H3.40114C3.17587 17.1375 2.95342 17.09 2.74651 17.0008C2.53961 16.9117 2.35231 16.7826 2.19533 16.621C2.03834 16.4594 1.91475 16.2684 1.83162 16.059C1.74849 15.8496 1.70746 15.6259 1.71086 15.4006L1.73657 13.7121H1.09714C0.714857 13.7121 0.576 13.6726 0.437143 13.5972C0.298443 13.5244 0.184924 13.4115 0.111429 13.2732C0.0411429 13.1343 0 12.9955 0 12.6149V11.3841C0 11.0018 0.0394286 10.8629 0.114857 10.7241C0.187622 10.5854 0.300543 10.4718 0.438857 10.3983C0.577714 10.3246 0.716571 10.2835 1.09714 10.2835H1.75886V8.99777C1.75886 8.30005 1.83943 8.01205 1.98857 7.73263C2.13474 7.45656 2.3605 7.23079 2.63657 7.08462C2.84229 6.9732 3.05314 6.9012 3.42686 6.87205V6.85491C3.42686 6.40025 3.60747 5.96422 3.92896 5.64273C4.25045 5.32124 4.68649 5.14063 5.14114 5.14062C5.5958 5.14063 6.03184 5.32124 6.35333 5.64273C6.67482 5.96422 6.85543 6.40025 6.85543 6.85491V17.1406C6.85543 17.5953 6.67482 18.0313 6.35333 18.3528C6.03184 18.6743 5.5958 18.8549 5.14114 18.8549C4.68649 18.8549 4.25045 18.6743 3.92896 18.3528C3.60747 18.0313 3.42686 17.5953 3.42686 17.1406H3.42857ZM15.4286 10.2835V13.7121H8.57143V10.2835H15.4286Z" fill="white"/>
</svg>
