<svg width="28" height="22" viewBox="0 0 28 22" fill="none" xmlns="http://www.w3.org/2000/svg">
<path fill-rule="evenodd" clip-rule="evenodd" d="M2.35611 9.47086C9.60385 6.36615 14.4368 4.31934 16.855 3.33042C23.7594 0.506852 25.1941 0.0163687 26.1292 0.000172686C26.3349 -0.00338946 26.7947 0.0467251 27.0926 0.284372C27.3441 0.485037 27.4133 0.756106 27.4464 0.946358C27.4795 1.13661 27.5208 1.57001 27.488 1.90866C27.1138 5.7739 25.4949 15.1538 24.6713 19.483C24.3228 21.3148 23.6365 21.929 22.9722 21.9891C21.5284 22.1197 20.4321 21.051 19.0337 20.1497C16.8455 18.7394 15.6094 17.8615 13.4854 16.4853C11.0307 14.8949 12.622 14.0208 14.0209 12.5922C14.387 12.2184 20.7483 6.52943 20.8714 6.01335C20.8868 5.94881 20.9011 5.70822 20.7557 5.58118C20.6103 5.45414 20.3958 5.49758 20.2409 5.53213C20.0215 5.5811 16.5259 7.85279 9.75407 12.3472C8.76184 13.0171 7.86312 13.3435 7.05789 13.3264C6.1702 13.3075 4.46262 12.8329 3.19322 12.4272C1.63624 11.9296 0.398786 11.6665 0.506541 10.8214C0.562666 10.3812 1.17919 9.93102 2.35611 9.47086Z" fill="white"/>
</svg>
