<svg width="40" height="40" viewBox="0 0 40 40" fill="none" xmlns="http://www.w3.org/2000/svg">
<rect width="40" height="40" rx="8" fill="#2C2C2E"/>
<path fill-rule="evenodd" clip-rule="evenodd" d="M30.9089 10.7806C32.113 11.1041 33.0655 12.0566 33.389 13.2607C33.982 15.4532 34 20.0001 34 20.0001C34 20.0001 34 24.5649 33.4069 26.7395C33.0834 27.9436 32.1309 28.8961 30.9268 29.2196C28.7522 29.8127 20 29.8127 20 29.8127C20 29.8127 11.2478 29.8127 9.07317 29.2196C7.86906 28.8961 6.91656 27.9436 6.59307 26.7395C6 24.5469 6 20.0001 6 20.0001C6 20.0001 6 15.4532 6.5751 13.2786C6.89859 12.0745 7.85109 11.122 9.0552 10.7985C11.2298 10.2055 19.982 10.1875 19.982 10.1875C19.982 10.1875 28.7343 10.1875 30.9089 10.7806ZM24.457 20.0003L17.1964 24.2057V15.7949L24.457 20.0003Z" fill="white"/>
</svg>
