<svg width="28" height="20" viewBox="0 0 28 20" fill="none" xmlns="http://www.w3.org/2000/svg">
<path fill-rule="evenodd" clip-rule="evenodd" d="M24.9089 0.780568C26.113 1.10406 27.0655 2.05656 27.389 3.26067C27.982 5.45323 28 10.0001 28 10.0001C28 10.0001 28 14.5649 27.4069 16.7395C27.0834 17.9436 26.1309 18.8961 24.9268 19.2196C22.7522 19.8127 14 19.8127 14 19.8127C14 19.8127 5.24775 19.8127 3.07317 19.2196C1.86906 18.8961 0.91656 17.9436 0.593068 16.7395C0 14.5469 0 10.0001 0 10.0001C0 10.0001 0 5.45323 0.575096 3.27864C0.898588 2.07453 1.85109 1.12203 3.0552 0.79854C5.22978 0.205472 13.982 0.1875 13.982 0.1875C13.982 0.1875 22.7343 0.1875 24.9089 0.780568ZM18.457 10.0003L11.1964 14.2057V5.79492L18.457 10.0003Z" fill="white"/>
</svg>
