<svg width="172" height="82" viewBox="0 0 172 82" fill="none" xmlns="http://www.w3.org/2000/svg">
<path d="M14.2527 55.9984V10.384L3.96494 16.5455L0 9.64717L14.2527 1.11377H22.2598V55.9984H14.2527Z" fill="white"/>
<path d="M101.987 0.00532637C104.521 -0.0214657 107.045 0.330975 109.474 1.05095C111.603 1.68423 113.586 2.73375 115.306 4.13869C116.939 5.51591 118.241 7.24274 119.117 9.19137C120.062 11.3853 120.524 13.7573 120.471 16.1458C120.476 17.3906 120.323 18.631 120.015 19.8371C119.724 21.0047 119.268 22.1248 118.66 23.1634C118.067 24.1746 117.322 25.0883 116.45 25.8722C115.563 26.6635 114.553 27.3057 113.46 27.774C114.729 28.1509 115.919 28.7575 116.969 29.5635C119.107 31.2159 120.694 33.4763 121.524 36.0477C121.95 37.3527 122.168 38.7169 122.169 40.0899C122.222 42.6143 121.714 45.1189 120.681 47.4233C119.714 49.4998 118.28 51.3249 116.492 52.7566C114.599 54.2575 112.429 55.3711 110.106 56.0339C104.806 57.5111 99.2025 57.5111 93.9023 56.0339C91.5808 55.3725 89.4129 54.2587 87.5233 52.7566C85.7231 51.3229 84.2815 49.4897 83.3127 47.4022C82.2838 45.0968 81.7758 42.5929 81.825 40.0688C81.8258 38.6958 82.0437 37.3316 82.4706 36.0267C82.8877 34.7377 83.4931 33.5175 84.2671 32.4056C85.0274 31.3121 85.9558 30.3458 87.018 29.5424C88.07 28.7391 89.2588 28.1328 90.5268 27.7529C89.4132 27.3109 88.3885 26.6714 87.5022 25.8652C86.6409 25.0796 85.9028 24.1688 85.3127 23.1634C84.7058 22.127 84.2497 21.0093 83.9583 19.8441C83.6519 18.6355 83.5009 17.3927 83.5092 16.1458C83.4732 13.7584 83.9519 11.3912 84.9127 9.2054C85.7877 7.25093 87.0984 5.5226 88.7443 4.15273C90.4735 2.74906 92.4623 1.69984 94.597 1.06498C96.9939 0.346761 99.4844 -0.0103778 101.987 0.00532637ZM101.987 31.7951C98.1736 31.7951 95.2567 32.5389 93.2356 34.0267C92.2499 34.7485 91.4579 35.7029 90.9302 36.8048C90.4025 37.9067 90.1555 39.122 90.211 40.3425C90.1846 41.6751 90.4504 42.9974 90.99 44.2162C91.5292 45.3552 92.3328 46.3489 93.3338 47.1145C94.4363 47.9751 95.6978 48.6095 97.0461 48.9812C100.318 49.8514 103.76 49.8514 107.032 48.9812C108.377 48.6111 109.634 47.9765 110.73 47.1145C111.69 46.3308 112.461 45.3399 112.983 44.2162C113.528 43.0206 113.801 41.7193 113.783 40.4057C113.839 39.1844 113.592 37.9682 113.063 36.866C112.533 35.7639 111.739 34.81 110.752 34.0898C108.745 32.56 105.823 31.7951 101.987 31.7951ZM101.987 24.209C103.551 24.2283 105.109 23.9913 106.597 23.5073C107.776 23.1432 108.87 22.5493 109.818 21.7599C110.641 21.0479 111.288 20.1541 111.706 19.1493C112.113 18.1562 112.32 17.0927 112.316 16.0195C112.342 14.7834 112.08 13.5582 111.552 12.4405C111.057 11.4099 110.338 10.5033 109.446 9.78786C108.476 9.03034 107.368 8.46794 106.183 8.13171C104.815 7.73561 103.397 7.54175 101.973 7.55627C100.548 7.5393 99.1294 7.73322 97.7619 8.13171C96.5867 8.46947 95.488 9.0319 94.5268 9.78786C93.6285 10.4965 92.9076 11.4047 92.4216 12.4405C91.9066 13.5621 91.6523 14.7856 91.6777 16.0195C91.674 17.0927 91.8814 18.1562 92.2882 19.1493C92.718 20.1569 93.3763 21.0507 94.211 21.7599C95.1406 22.5626 96.2215 23.1711 97.39 23.5494C98.8754 24.0208 100.429 24.2437 101.987 24.209Z" fill="white"/>
<path d="M171.089 39.1913C171.133 41.7761 170.626 44.3406 169.601 46.7141C168.654 48.8674 167.243 50.7845 165.468 52.3282C163.617 53.9149 161.471 55.1193 159.152 55.8721C156.558 56.7253 153.841 57.1449 151.11 57.1142C148.609 57.1322 146.118 56.8064 143.706 56.1458C141.434 55.5333 139.293 54.5081 137.391 53.1212C135.47 51.693 133.844 49.9055 132.605 47.858C131.203 45.5098 130.235 42.9282 129.748 40.2369L137.98 38.9737C138.351 40.5491 138.912 42.0737 139.65 43.5141C140.3 44.8043 141.206 45.948 142.314 46.8749C143.422 47.8018 144.708 48.4922 146.092 48.9036C147.775 49.4023 149.524 49.639 151.278 49.6054C152.884 49.6265 154.479 49.3554 155.987 48.8054C157.321 48.3159 158.55 47.5777 159.608 46.6299C160.606 45.7231 161.401 44.6164 161.943 43.382C162.484 42.1476 162.76 40.813 162.752 39.465C162.752 36.2836 161.742 33.8883 159.721 32.2789C157.7 30.6696 154.834 29.8625 151.124 29.8579H145.138V23.3315L159.089 8.59453H132.857V1.11377H168.921V8.6226L154.626 23.4438C159.987 23.8789 164.072 25.404 166.879 28.0193C169.686 30.6345 171.089 34.3585 171.089 39.1913Z" fill="white"/>
<path d="M67.3274 6.71426C71.1028 11.1845 72.9414 17.3529 72.9414 25.2969C72.9414 34.0057 70.78 41.2549 66.5414 47.1918C62.3027 53.1287 56.3729 55.9778 48.8219 55.9778C44.6149 56.0623 40.4791 54.8841 36.9482 52.5953V44.9181C40.1713 47.1275 43.9879 48.3092 47.8956 48.3076C53.0606 48.3076 57.0676 46.5321 59.7694 42.911C62.4712 39.29 63.98 34.9741 64.2396 29.8022C61.0817 33.8864 56.4571 35.8934 50.2816 35.8934C45.3693 35.8934 41.1587 34.3496 37.8745 31.1916C34.5902 28.0337 32.9622 23.8653 32.9622 18.7003C32.9622 13.2266 34.7306 8.74936 38.3517 5.28266C40.1549 3.55058 42.2832 2.19253 44.6137 1.2868C46.9443 0.381075 49.4311 -0.054417 51.9307 0.0054283C58.4571 0.0054283 63.6221 2.24404 67.3274 6.71426ZM44.4991 10.6441C43.4651 11.6714 42.6516 12.899 42.1086 14.2517C41.5656 15.6044 41.3045 17.0537 41.3412 18.5108C41.29 19.9344 41.5456 21.3523 42.0904 22.6684C42.6353 23.9845 43.4567 25.1681 44.4991 26.139C46.7145 28.0734 49.5806 29.0965 52.5202 29.0022C55.1907 28.9966 57.7877 28.1276 59.9238 26.5249C62.0996 25.0828 63.707 22.9297 64.4712 20.4337C63.8536 12.4196 59.5589 7.48619 52.443 7.48619C50.9742 7.44836 49.513 7.7087 48.1476 8.25147C46.7822 8.79424 45.5411 9.60818 44.4991 10.6441Z" fill="white"/>
<path d="M17.7253 63.646L19.8569 70.2189H18.5469L18.1133 68.8495H15.6622L15.2286 70.2189H13.9186L16.0502 63.646H17.7253ZM16.0319 67.6902H17.7436L16.89 64.988L16.0319 67.6902Z" fill="white"/>
<path d="M21.8981 70.2234H20.6475V63.6506H24.9472V64.81H21.8981V70.2234Z" fill="white"/>
<path d="M29.9752 70.2234H25.6755V63.6506H29.9752V64.81H26.9262V66.2158H29.4275V67.3752H26.9262V69.0641H29.9752V70.2234Z" fill="white"/>
<path d="M32.3197 70.2234H31.0691V63.6506H32.3197V66.3528H35.2501V63.6506H36.5008V70.2234H35.2501V67.5121H32.3197V70.2234Z" fill="white"/>
<path d="M40.4796 70.2234H39.229V64.81H37.2982V63.6506H42.4104V64.81H40.4796V70.2234Z" fill="white"/>
<path d="M46.1747 70.3604C44.2029 70.3604 42.9887 68.9819 42.9887 66.937C42.9887 64.8921 44.2029 63.5137 46.1747 63.5137C47.681 63.5137 48.74 64.317 49.1599 65.5951L47.9092 65.942C47.6627 65.1478 47.0876 64.6822 46.1747 64.6822C44.9697 64.6822 44.2942 65.5677 44.2942 66.937C44.2942 68.3064 44.9241 69.1919 46.1747 69.1919C47.0876 69.1919 47.6627 68.7263 47.9092 67.9321L49.1599 68.279C48.74 69.557 47.681 70.3604 46.1747 70.3604Z" fill="white"/>
<path d="M52.8625 70.2234H51.6119V64.81H49.6811V63.6506H54.7933V64.81H52.8625V70.2234Z" fill="white"/>
<path d="M58.3477 70.2234H55.7368V63.6506H58.2792C59.4842 63.6506 60.4701 64.2303 60.4701 65.3897C60.4701 66.2432 59.9452 66.686 59.5572 66.8047C60.0502 66.8914 60.6847 67.4026 60.6847 68.384C60.6847 69.6666 59.6166 70.2234 58.3477 70.2234ZM58.3066 64.81H56.9874V66.266H58.3066C58.8087 66.266 59.2149 66.1109 59.2149 65.5403C59.2149 64.9697 58.8087 64.81 58.3066 64.81ZM56.9874 69.0641H58.3477C58.8863 69.0641 59.4431 68.9408 59.4431 68.2333C59.4431 67.5258 58.8863 67.4072 58.3477 67.4072H56.9874V69.0641Z" fill="white"/>
<path d="M64.4148 70.3604C62.4429 70.3604 61.2288 68.9819 61.2288 66.937C61.2288 64.8921 62.4429 63.5137 64.4148 63.5137C66.3866 63.5137 67.6008 64.8921 67.6008 66.937C67.6008 68.9819 66.3866 70.3604 64.4148 70.3604ZM64.4148 69.1919C65.6654 69.1919 66.2862 68.3064 66.2862 66.937C66.2862 65.5677 65.6654 64.6822 64.4148 64.6822C63.1641 64.6822 62.5433 65.5677 62.5433 66.937C62.5433 68.3064 63.1641 69.1919 64.4148 69.1919Z" fill="white"/>
<path d="M15.6576 80.7218H14.407V74.1489H15.6576V76.8511H18.588V74.1489H19.8387V80.7218H18.588V78.0105H15.6576V80.7218Z" fill="white"/>
<path d="M25.4197 80.7218H21.12V74.1489H25.4197V75.3083H22.3706V76.7142H24.8719V77.8735H22.3706V79.5624H25.4197V80.7218Z" fill="white"/>
<path d="M26.1484 81.9998V79.5624H26.6961C27.1343 79.1059 27.1845 77.7183 27.1845 76.3171V74.1489H31.9544V79.5624H32.6938V81.9998H31.4431V80.7218H27.3899V81.9998H26.1484ZM27.997 79.5624H30.7037V75.3083H28.3393V76.8648C28.3393 78.2341 28.1841 79.1835 27.997 79.5624Z" fill="white"/>
<path d="M36.3099 80.7218H33.699V74.1489H36.2414C37.4464 74.1489 38.4323 74.7286 38.4323 75.888C38.4323 76.7416 37.9074 77.1843 37.5194 77.303C38.0124 77.3897 38.6469 77.9009 38.6469 78.8823C38.6469 80.1649 37.5788 80.7218 36.3099 80.7218ZM36.2688 75.3083H34.9496V76.7644H36.2688C36.7709 76.7644 37.1771 76.6092 37.1771 76.0386C37.1771 75.4681 36.7709 75.3083 36.2688 75.3083ZM34.9496 79.5624H36.3099C36.8485 79.5624 37.4053 79.4392 37.4053 78.7317C37.4053 78.0242 36.8485 77.9055 36.3099 77.9055H34.9496V79.5624Z" fill="white"/>
<path d="M44.9331 80.7218H43.6824V76.2942L40.8068 80.7218H39.5561V74.1489H40.8068V78.5765L43.6824 74.1489H44.9331V80.7218Z" fill="white"/>
<path d="M49.8491 80.7218V77.7275L47.2291 80.7218H45.6589L48.5802 77.3897L45.8324 74.1489H47.3478L49.8491 77.1797V74.1489H51.0998V77.1797L53.6011 74.1489H55.1165L52.3687 77.3897L55.29 80.7218H53.7198L51.0998 77.7275V80.7218H49.8491Z" fill="white"/>
<path d="M61.399 80.7218H60.1483V76.2942L57.2727 80.7218H56.0221V74.1489H57.2727V78.5765L60.1483 74.1489H61.399V80.7218Z" fill="white"/>
<path d="M63.9233 80.7218H62.6726V74.1489H63.9233L65.9591 78.3528L67.9948 74.1489H69.2455V80.7218H67.9948V76.6137L66.4748 79.7587H65.4433L63.9233 76.6137V80.7218Z" fill="white"/>
<path d="M73.3476 80.8587C71.3757 80.8587 70.1616 79.4802 70.1616 77.4354C70.1616 75.3905 71.3757 74.012 73.3476 74.012C75.3194 74.012 76.5336 75.3905 76.5336 77.4354C76.5336 79.4802 75.3194 80.8587 73.3476 80.8587ZM73.3476 79.6902C74.5982 79.6902 75.219 78.8047 75.219 77.4354C75.219 76.066 74.5982 75.1805 73.3476 75.1805C72.0969 75.1805 71.4761 76.066 71.4761 77.4354C71.4761 78.8047 72.0969 79.6902 73.3476 79.6902Z" fill="white"/>
<path d="M80.2656 80.8587C78.2937 80.8587 77.0796 79.4802 77.0796 77.4354C77.0796 75.3905 78.2937 74.012 80.2656 74.012C81.7719 74.012 82.8308 74.8153 83.2507 76.0934L82.0001 76.4403C81.7536 75.6461 81.1785 75.1805 80.2656 75.1805C79.0606 75.1805 78.385 76.066 78.385 77.4354C78.385 78.8047 79.0149 79.6902 80.2656 79.6902C81.1785 79.6902 81.7536 79.2246 82.0001 78.4304L83.2507 78.7773C82.8308 80.0554 81.7719 80.8587 80.2656 80.8587Z" fill="white"/>
<path d="M86.9534 80.7218H85.7027V75.3083H83.7719V74.1489H88.8842V75.3083H86.9534V80.7218Z" fill="white"/>
<path d="M95.2046 80.7218H93.9539V76.2942L91.0783 80.7218H89.8276V74.1489H91.0783V78.5765L93.9539 74.1489H95.2046V80.7218Z" fill="white"/>
<path d="M103.683 80.7218H102.432V76.2942L99.5564 80.7218H98.3058V74.1489H99.5564V78.5765L102.432 74.1489H103.683V80.7218Z" fill="white"/>
<path d="M112.161 80.7218H110.91V76.2942L108.035 80.7218H106.784V74.1489H108.035V78.5765L110.91 74.1489H112.161V80.7218Z" fill="white"/>
<path d="M114.685 80.7218H113.434V74.1489H114.685V76.8511H117.616V74.1489H118.866V80.7218H117.616V78.0105H114.685V80.7218Z" fill="white"/>
<path d="M122.758 80.7218H120.147V74.1489H122.69C123.895 74.1489 124.881 74.7286 124.881 75.888C124.881 76.7416 124.356 77.1843 123.968 77.303C124.461 77.3897 125.095 77.9009 125.095 78.8823C125.095 80.1649 124.027 80.7218 122.758 80.7218ZM122.717 75.3083H121.398V76.7644H122.717C123.219 76.7644 123.626 76.6092 123.626 76.0386C123.626 75.4681 123.219 75.3083 122.717 75.3083ZM121.398 79.5624H122.758C123.297 79.5624 123.854 79.4392 123.854 78.7317C123.854 78.0242 123.297 77.9055 122.758 77.9055H121.398V79.5624Z" fill="white"/>
<path d="M130.096 80.7218H125.978V74.4261H130.096V75.5366H127.176V76.8832H129.571V77.9937H127.176V79.6113H130.096V80.7218Z" fill="white"/>
<path d="M133.581 80.8529C131.692 80.8529 130.529 79.5326 130.529 77.574C130.529 75.6153 131.692 74.295 133.581 74.295C135.024 74.295 136.038 75.0644 136.44 76.2886L135.242 76.6209C135.006 75.8601 134.455 75.4142 133.581 75.4142C132.427 75.4142 131.78 76.2624 131.78 77.574C131.78 78.8855 132.383 79.7337 133.581 79.7337C134.455 79.7337 135.006 79.2878 135.242 78.527L136.44 78.8593C136.038 80.0835 135.024 80.8529 133.581 80.8529Z" fill="white"/>
<path d="M139.987 80.7218H138.789V75.5366H136.939V74.4261H141.836V75.5366H139.987V80.7218Z" fill="white"/>
<path d="M147.89 80.7218H146.692V76.481L143.938 80.7218H142.74V74.4261H143.938V78.6669L146.692 74.4261H147.89V80.7218Z" fill="white"/>
<path d="M155.108 81.9459H153.91V80.7218H149.11V74.4261H150.308V79.6113H153.202V74.4261H154.4V79.6113H155.108V81.9459Z" fill="white"/>
<path d="M160.955 80.7218H159.757V76.481L157.002 80.7218H155.804V74.4261H157.002V78.6669L159.757 74.4261H160.955V80.7218Z" fill="white"/>
<path d="M164.728 73.9015C164.221 73.9015 163.77 73.6348 163.525 73.2107C163.399 72.9965 163.337 72.7648 163.337 72.5112H164.255C164.255 72.7735 164.465 72.9834 164.728 72.9834C164.99 72.9834 165.2 72.7735 165.2 72.5112H166.118C166.118 73.0184 165.851 73.4687 165.427 73.7135C165.213 73.8403 164.981 73.9015 164.728 73.9015ZM167.325 80.7218H166.127V76.481L163.372 80.7218H162.174V74.4261H163.372V78.6669L166.127 74.4261H167.325V80.7218Z" fill="white"/>
</svg>
