<svg width="117" height="56" viewBox="0 0 117 56" fill="none" xmlns="http://www.w3.org/2000/svg">
<path d="M9.73924 38.2652V7.09581L2.70934 11.3061L0 6.59231L9.73924 0.76123H15.2107V38.2652H9.73924Z" fill="white"/>
<path d="M69.69 0.00390009C71.4216 -0.0144076 73.1462 0.226424 74.8066 0.718399C76.2614 1.15113 77.6158 1.8683 78.7915 2.82833C79.9073 3.76942 80.7972 4.9494 81.3953 6.28094C82.0417 7.78008 82.3573 9.40093 82.3208 11.0331C82.3245 11.8837 82.2197 12.7313 82.0091 13.5554C81.8104 14.3533 81.4988 15.1187 81.0836 15.8284C80.6782 16.5193 80.1688 17.1437 79.5731 17.6793C78.9668 18.22 78.277 18.6589 77.5303 18.9789C78.3975 19.2365 79.2102 19.6509 79.9279 20.2017C81.3886 21.3308 82.4735 22.8754 83.0401 24.6325C83.3318 25.5242 83.4807 26.4564 83.4813 27.3946C83.5172 29.1196 83.17 30.8311 82.4647 32.4057C81.8036 33.8246 80.8239 35.0718 79.6019 36.0501C78.3083 37.0757 76.8256 37.8366 75.2381 38.2895C71.6164 39.299 67.7876 39.299 64.1658 38.2895C62.5795 37.8376 61.0981 37.0765 59.8069 36.0501C58.5768 35.0704 57.5917 33.8177 56.9297 32.3913C56.2266 30.816 55.8795 29.105 55.9131 27.3802C55.9137 26.442 56.0626 25.5098 56.3543 24.6181C56.6393 23.7374 57.053 22.9036 57.5819 22.1438C58.1014 21.3966 58.7358 20.7363 59.4616 20.1873C60.1805 19.6384 60.9928 19.2241 61.8593 18.9645C61.0983 18.6624 60.3982 18.2254 59.7925 17.6746C59.204 17.1377 58.6996 16.5154 58.2964 15.8284C57.8816 15.1202 57.57 14.3564 57.3709 13.5602C57.1615 12.7343 57.0583 11.8851 57.064 11.0331C57.0394 9.4017 57.3665 7.78416 58.023 6.29053C58.621 4.95499 59.5166 3.77398 60.6413 2.83792C61.8228 1.87876 63.1818 1.1618 64.6406 0.727989C66.2784 0.237211 67.9802 -0.00683093 69.69 0.00390009ZM69.69 21.7266C67.0846 21.7266 65.0913 22.2349 63.7103 23.2515C63.0367 23.7447 62.4955 24.3969 62.1349 25.1498C61.7744 25.9028 61.6055 26.7332 61.6435 27.5672C61.6254 28.4779 61.8071 29.3814 62.1758 30.2142C62.5442 30.9926 63.0934 31.6716 63.7774 32.1947C64.5307 32.7828 65.3928 33.2163 66.3141 33.4702C68.5498 34.0649 70.9021 34.0649 73.1378 33.4702C74.0566 33.2174 74.9158 32.7837 75.6649 32.1947C76.3209 31.6592 76.8472 30.9821 77.2042 30.2142C77.5763 29.3972 77.763 28.508 77.7509 27.6104C77.7892 26.7759 77.62 25.9448 77.2585 25.1917C76.897 24.4386 76.3544 23.7868 75.6793 23.2946C74.3079 22.2493 72.3114 21.7266 69.69 21.7266ZM69.69 16.5429C70.7593 16.556 71.8235 16.3941 72.8405 16.0633C73.6458 15.8146 74.3939 15.4087 75.0415 14.8693C75.604 14.3828 76.0456 13.7721 76.3315 13.0855C76.6094 12.4068 76.7512 11.6801 76.7487 10.9468C76.7661 10.1021 76.5872 9.26491 76.226 8.50116C75.8882 7.79688 75.3966 7.17744 74.7874 6.68854C74.1241 6.17091 73.3669 5.78661 72.5576 5.55685C71.6228 5.28619 70.6535 5.15371 69.6804 5.16364C68.7072 5.15204 67.7376 5.28455 66.8032 5.55685C66.0001 5.78765 65.2494 6.17197 64.5926 6.68854C63.9787 7.17273 63.4862 7.79336 63.154 8.50116C62.8022 9.26754 62.6284 10.1036 62.6457 10.9468C62.6432 11.6801 62.7849 12.4068 63.0629 13.0855C63.3565 13.774 63.8064 14.3847 64.3768 14.8693C65.012 15.4178 65.7506 15.8336 66.5491 16.0921C67.5641 16.4142 68.6253 16.5665 69.69 16.5429Z" fill="#BF6128"/>
<path d="M116.909 26.7805C116.939 28.5468 116.593 30.2992 115.893 31.921C115.246 33.3924 114.281 34.7024 113.068 35.7573C111.804 36.8415 110.337 37.6645 108.752 38.1789C106.98 38.7619 105.123 39.0486 103.257 39.0277C101.548 39.04 99.8461 38.8173 98.1981 38.3659C96.6449 37.9474 95.182 37.2468 93.8823 36.2991C92.5697 35.3232 91.4591 34.1018 90.6119 32.7027C89.6538 31.0981 88.9927 29.334 88.6602 27.495L94.2851 26.6318C94.5388 27.7083 94.922 28.7501 95.4264 29.7344C95.8702 30.616 96.4896 31.3976 97.2467 32.0309C98.0037 32.6642 98.8823 33.136 99.8285 33.4172C100.978 33.7579 102.173 33.9197 103.372 33.8967C104.469 33.9111 105.559 33.7259 106.59 33.35C107.501 33.0155 108.341 32.5111 109.064 31.8635C109.746 31.2438 110.289 30.4876 110.659 29.6441C111.029 28.8006 111.218 27.8886 111.212 26.9675C111.212 24.7936 110.522 23.1568 109.141 22.0571C107.76 20.9574 105.802 20.4059 103.267 20.4028H99.1763V15.9431L108.709 5.87301H90.7845V0.76123H115.428V5.89219L105.66 16.0199C109.323 16.3172 112.114 17.3593 114.032 19.1464C115.95 20.9334 116.909 23.4781 116.909 26.7805Z" fill="#BF6128"/>
<path d="M46.006 4.58801C48.5859 7.64261 49.8423 11.8577 49.8423 17.2859C49.8423 23.2369 48.3653 28.1904 45.469 32.2473C42.5726 36.3041 38.5206 38.251 33.3609 38.251C30.4861 38.3087 27.66 37.5036 25.2472 35.9396V30.6936C27.4497 32.2034 30.0576 33.0108 32.7279 33.0097C36.2572 33.0097 38.9953 31.7965 40.8415 29.3221C42.6877 26.8478 43.7187 23.8987 43.8961 20.3645C41.7382 23.1554 38.5781 24.5268 34.3583 24.5268C31.0016 24.5268 28.1244 23.4719 25.8802 21.314C23.636 19.1561 22.5235 16.3077 22.5235 12.7784C22.5235 9.03804 23.7319 5.97864 26.2063 3.60977C27.4385 2.42619 28.8928 1.49821 30.4853 0.879302C32.0778 0.260398 33.7771 -0.0371844 35.4852 0.00370929C39.9448 0.00370929 43.4741 1.53341 46.006 4.58801ZM30.407 7.27337C29.7004 7.97536 29.1445 8.81421 28.7735 9.73853C28.4024 10.6629 28.224 11.6532 28.2491 12.6489C28.2141 13.6216 28.3887 14.5905 28.7611 15.4898C29.1334 16.3892 29.6947 17.198 30.407 17.8614C31.9208 19.1832 33.8793 19.8823 35.888 19.8179C37.7128 19.8141 39.4874 19.2203 40.947 18.1251C42.4338 17.1397 43.5322 15.6684 44.0544 13.9628C43.6324 8.48658 40.6977 5.11549 35.8352 5.11549C34.8316 5.08964 33.8331 5.26754 32.9001 5.63843C31.9671 6.00932 31.119 6.5655 30.407 7.27337Z" fill="#BF6128"/>
<path d="M12.1126 43.4586L13.5692 47.95H12.674L12.3777 47.0143H10.7028L10.4065 47.95H9.51135L10.9679 43.4586H12.1126ZM10.9555 46.2221H12.1251L11.5418 44.3756L10.9555 46.2221Z" fill="white"/>
<path d="M14.964 47.9531H14.1094V43.4617H17.0475V44.254H14.964V47.9531Z" fill="white"/>
<path d="M20.4832 47.9531H17.5451V43.4617H20.4832V44.254H18.3997V45.2146H20.109V46.0068H18.3997V47.1609H20.4832V47.9531Z" fill="white"/>
<path d="M22.0853 47.9531H21.2307V43.4617H22.0853V45.3082H24.0877V43.4617H24.9423V47.9531H24.0877V46.1004H22.0853V47.9531Z" fill="white"/>
<path d="M27.6611 47.9531H26.8065V44.254H25.4872V43.4617H28.9805V44.254H27.6611V47.9531Z" fill="white"/>
<path d="M31.5527 48.0467C30.2053 48.0467 29.3757 47.1047 29.3757 45.7074C29.3757 44.3101 30.2053 43.3682 31.5527 43.3682C32.582 43.3682 33.3056 43.9171 33.5926 44.7904L32.738 45.0275C32.5695 44.4848 32.1765 44.1666 31.5527 44.1666C30.7293 44.1666 30.2677 44.7717 30.2677 45.7074C30.2677 46.6431 30.6981 47.2482 31.5527 47.2482C32.1765 47.2482 32.5695 46.9301 32.738 46.3874L33.5926 46.6244C33.3056 47.4977 32.582 48.0467 31.5527 48.0467Z" fill="white"/>
<path d="M36.1227 47.9531H35.2681V44.254H33.9487V43.4617H37.442V44.254H36.1227V47.9531Z" fill="white"/>
<path d="M39.8708 47.9531H38.0867V43.4617H39.824C40.6474 43.4617 41.3211 43.8578 41.3211 44.6501C41.3211 45.2333 40.9624 45.5359 40.6973 45.617C41.0342 45.6762 41.4677 46.0256 41.4677 46.6961C41.4677 47.5726 40.7379 47.9531 39.8708 47.9531ZM39.8427 44.254H38.9413V45.2489H39.8427C40.1858 45.2489 40.4634 45.1429 40.4634 44.753C40.4634 44.3631 40.1858 44.254 39.8427 44.254ZM38.9413 47.1609H39.8708C40.2388 47.1609 40.6194 47.0767 40.6194 46.5932C40.6194 46.1098 40.2388 46.0287 39.8708 46.0287H38.9413V47.1609Z" fill="white"/>
<path d="M44.0166 48.0467C42.6692 48.0467 41.8395 47.1047 41.8395 45.7074C41.8395 44.3101 42.6692 43.3682 44.0166 43.3682C45.364 43.3682 46.1937 44.3101 46.1937 45.7074C46.1937 47.1047 45.364 48.0467 44.0166 48.0467ZM44.0166 47.2482C44.8712 47.2482 45.2954 46.6431 45.2954 45.7074C45.2954 44.7717 44.8712 44.1666 44.0166 44.1666C43.162 44.1666 42.7378 44.7717 42.7378 45.7074C42.7378 46.6431 43.162 47.2482 44.0166 47.2482Z" fill="white"/>
<path d="M10.6997 55.1268H9.84509V50.6355H10.6997V52.4819H12.7021V50.6355H13.5567V55.1268H12.7021V53.2742H10.6997V55.1268Z" fill="white"/>
<path d="M17.3703 55.1268H14.4322V50.6355H17.3703V51.4277H15.2868V52.3884H16.996V53.1806H15.2868V54.3346H17.3703V55.1268Z" fill="white"/>
<path d="M17.8682 56.0002V54.3346H18.2425C18.542 54.0227 18.5763 53.0745 18.5763 52.117V50.6355H21.8356V54.3346H22.3409V56.0002H21.4863V55.1268H18.7166V56.0002H17.8682ZM19.1314 54.3346H20.981V51.4277H19.3654V52.4913C19.3654 53.427 19.2593 54.0757 19.1314 54.3346Z" fill="white"/>
<path d="M24.8118 55.1268H23.0278V50.6355H24.7651C25.5885 50.6355 26.2622 51.0316 26.2622 51.8238C26.2622 52.4071 25.9035 52.7096 25.6384 52.7907C25.9752 52.85 26.4088 53.1993 26.4088 53.8699C26.4088 54.7463 25.6789 55.1268 24.8118 55.1268ZM24.7838 51.4277H23.8824V52.4227H24.7838C25.1269 52.4227 25.4045 52.3166 25.4045 51.9267C25.4045 51.5369 25.1269 51.4277 24.7838 51.4277ZM23.8824 54.3346H24.8118C25.1799 54.3346 25.5604 54.2504 25.5604 53.767C25.5604 53.2835 25.1799 53.2024 24.8118 53.2024H23.8824V54.3346Z" fill="white"/>
<path d="M30.7043 55.1268H29.8497V52.1014L27.8847 55.1268H27.0301V50.6355H27.8847V53.6609L29.8497 50.6355H30.7043V55.1268Z" fill="white"/>
<path d="M34.0635 55.1268V53.0808L32.2732 55.1268H31.2003L33.1965 52.85L31.3188 50.6355H32.3543L34.0635 52.7065V50.6355H34.9182V52.7065L36.6274 50.6355H37.6629L35.7852 52.85L37.7814 55.1268H36.7085L34.9182 53.0808V55.1268H34.0635Z" fill="white"/>
<path d="M41.9559 55.1268H41.1012V52.1014L39.1363 55.1268H38.2817V50.6355H39.1363V53.6609L41.1012 50.6355H41.9559V55.1268Z" fill="white"/>
<path d="M43.6808 55.1268H42.8262V50.6355H43.6808L45.0718 53.5081L46.4629 50.6355H47.3175V55.1268H46.4629V52.3197L45.4243 54.4687H44.7194L43.6808 52.3197V55.1268Z" fill="white"/>
<path d="M50.1206 55.2204C48.7732 55.2204 47.9435 54.2785 47.9435 52.8812C47.9435 51.4838 48.7732 50.5419 50.1206 50.5419C51.468 50.5419 52.2977 51.4838 52.2977 52.8812C52.2977 54.2785 51.468 55.2204 50.1206 55.2204ZM50.1206 54.4219C50.9752 54.4219 51.3994 53.8169 51.3994 52.8812C51.3994 51.9455 50.9752 51.3404 50.1206 51.3404C49.266 51.3404 48.8418 51.9455 48.8418 52.8812C48.8418 53.8169 49.266 54.4219 50.1206 54.4219Z" fill="white"/>
<path d="M54.8478 55.2204C53.5004 55.2204 52.6708 54.2785 52.6708 52.8812C52.6708 51.4838 53.5004 50.5419 54.8478 50.5419C55.8771 50.5419 56.6007 51.0908 56.8877 51.9642L56.0331 52.2012C55.8646 51.6585 55.4716 51.3404 54.8478 51.3404C54.0244 51.3404 53.5628 51.9455 53.5628 52.8812C53.5628 53.8169 53.9932 54.4219 54.8478 54.4219C55.4716 54.4219 55.8646 54.1038 56.0331 53.5611L56.8877 53.7981C56.6007 54.6715 55.8771 55.2204 54.8478 55.2204Z" fill="white"/>
<path d="M59.4178 55.1268H58.5632V51.4277H57.2438V50.6355H60.7371V51.4277H59.4178V55.1268Z" fill="white"/>
<path d="M65.056 55.1268H64.2014V52.1014L62.2364 55.1268H61.3818V50.6355H62.2364V53.6609L64.2014 50.6355H65.056V55.1268Z" fill="white"/>
<path d="M70.8493 55.1268H69.9947V52.1014L68.0297 55.1268H67.1751V50.6355H68.0297V53.6609L69.9947 50.6355H70.8493V55.1268Z" fill="white"/>
<path d="M76.6426 55.1268H75.788V52.1014L73.8231 55.1268H72.9684V50.6355H73.8231V53.6609L75.788 50.6355H76.6426V55.1268Z" fill="white"/>
<path d="M78.3675 55.1268H77.5129V50.6355H78.3675V52.4819H80.3699V50.6355H81.2246V55.1268H80.3699V53.2742H78.3675V55.1268Z" fill="white"/>
<path d="M83.8841 55.1268H82.1001V50.6355H83.8374C84.6608 50.6355 85.3345 51.0316 85.3345 51.8238C85.3345 52.4071 84.9758 52.7096 84.7107 52.7907C85.0475 52.85 85.4811 53.1993 85.4811 53.8699C85.4811 54.7463 84.7512 55.1268 83.8841 55.1268ZM83.8561 51.4277H82.9547V52.4227H83.8561C84.1992 52.4227 84.4768 52.3166 84.4768 51.9267C84.4768 51.5369 84.1992 51.4277 83.8561 51.4277ZM82.9547 54.3346H83.8841C84.2522 54.3346 84.6327 54.2504 84.6327 53.767C84.6327 53.2835 84.2522 53.2024 83.8841 53.2024H82.9547V54.3346Z" fill="white"/>
<path d="M88.8982 55.1268H86.084V50.8249H88.8982V51.5837H86.9025V52.5038H88.5397V53.2627H86.9025V54.368H88.8982V55.1268Z" fill="white"/>
<path d="M91.2794 55.2165C89.9889 55.2165 89.1942 54.3143 89.1942 52.9759C89.1942 51.6375 89.9889 50.7353 91.2794 50.7353C92.2653 50.7353 92.9584 51.2611 93.2333 52.0976L92.4147 52.3246C92.2534 51.8048 91.8769 51.5001 91.2794 51.5001C90.4908 51.5001 90.0486 52.0796 90.0486 52.9759C90.0486 53.8721 90.4609 54.4517 91.2794 54.4517C91.8769 54.4517 92.2534 54.147 92.4147 53.6271L93.2333 53.8542C92.9584 54.6907 92.2653 55.2165 91.2794 55.2165Z" fill="white"/>
<path d="M95.6567 55.1268H94.8381V51.5837H93.5744V50.8249H96.9204V51.5837H95.6567V55.1268Z" fill="white"/>
<path d="M101.057 55.1268H100.239V52.229L98.3564 55.1268H97.5379V50.8249H98.3564V53.7227L100.239 50.8249H101.057V55.1268Z" fill="white"/>
<path d="M105.99 55.9633H105.171V55.1268H101.891V50.8249H102.709V54.368H104.687V50.8249H105.506V54.368H105.99V55.9633Z" fill="white"/>
<path d="M109.985 55.1268H109.166V52.229L107.284 55.1268H106.465V50.8249H107.284V53.7227L109.166 50.8249H109.985V55.1268Z" fill="white"/>
<path d="M112.563 50.4664C112.216 50.4664 111.909 50.2842 111.741 49.9944C111.655 49.848 111.613 49.6897 111.613 49.5164H112.24C112.24 49.6956 112.384 49.839 112.563 49.839C112.742 49.839 112.885 49.6956 112.885 49.5164H113.513C113.513 49.8629 113.331 50.1706 113.041 50.3379C112.894 50.4246 112.736 50.4664 112.563 50.4664ZM114.337 55.1268H113.519V52.229L111.637 55.1268H110.818V50.8249H111.637V53.7227L113.519 50.8249H114.337V55.1268Z" fill="white"/>
</svg>
