<svg width="45" height="48" viewBox="0 0 45 48" fill="none" xmlns="http://www.w3.org/2000/svg">
<path d="M38.725 31.4625V8.96245V3.93745C38.725 2.73745 37.75 1.76245 36.55 1.76245H3.175C1.975 1.76245 1 2.73745 1 3.93745V8.96245V31.9125C1 33.1125 1.975 34.0875 3.175 34.0875H26.575" stroke="#BF6128" stroke-width="2" stroke-miterlimit="10" stroke-linecap="round" stroke-linejoin="round"/>
<path d="M1 8.9624H38.8" stroke="#BF6128" stroke-width="2" stroke-miterlimit="10" stroke-linecap="round" stroke-linejoin="round"/>
<path d="M13.375 18.9375V29.8125H17.575H22.225H25.225" stroke="#BF6128" stroke-width="2" stroke-miterlimit="10" stroke-linecap="round" stroke-linejoin="round"/>
<path d="M26.425 27.4875V18.9375" stroke="#BF6128" stroke-width="2" stroke-miterlimit="10" stroke-linecap="round" stroke-linejoin="round"/>
<path d="M29.2 21.4871L19.9 12.8621L10.6 21.4871" stroke="#BF6128" stroke-width="2" stroke-miterlimit="10" stroke-linecap="round" stroke-linejoin="round"/>
<path d="M22.3 23.2124H17.575V29.8124H22.3V23.2124Z" stroke="#BF6128" stroke-width="2" stroke-miterlimit="10" stroke-linecap="round" stroke-linejoin="round"/>
<path d="M28.45 5.51245H30.4" stroke="#BF6128" stroke-width="2" stroke-miterlimit="10" stroke-linecap="round" stroke-linejoin="round"/>
<path d="M33.55 5.51245H35.425" stroke="#BF6128" stroke-width="2" stroke-miterlimit="10" stroke-linecap="round" stroke-linejoin="round"/>
<path d="M34.825 40.0875L40.45 45.7125L43.15 43.0125L37.525 37.3125L43.75 33.1125L24.25 26.8125L30.55 46.2375L34.825 40.0875Z" stroke="#BF6128" stroke-width="2" stroke-miterlimit="10" stroke-linecap="round" stroke-linejoin="round"/>
</svg>
