<svg width="36" height="48" viewBox="0 0 36 48" fill="none" xmlns="http://www.w3.org/2000/svg">
<path d="M18.0372 37.8379C18.0372 37.8379 31.2372 27.2629 31.3872 15.0379C31.4622 7.83793 25.6872 1.91293 18.4872 1.76293C11.2122 1.68793 5.28717 7.46293 5.21217 14.7379C5.06217 26.9629 18.0372 37.8379 18.0372 37.8379Z" stroke="#BF6128" stroke-width="2" stroke-miterlimit="10" stroke-linecap="round" stroke-linejoin="round"/>
<path d="M22.9122 33.038L28.7622 33.113C29.6622 33.113 30.4872 33.638 30.8622 34.463L34.6122 43.013C35.2872 44.513 34.1622 46.238 32.5122 46.238L3.26217 45.863C1.61217 45.863 0.487169 44.063 1.23717 42.563L5.21217 34.088C5.58717 33.263 6.41217 32.738 7.31217 32.738L13.1622 32.813" stroke="#BF6128" stroke-width="2" stroke-miterlimit="10" stroke-linecap="round" stroke-linejoin="round"/>
<path d="M24.4122 13.313V23.513H12.1872V13.313" stroke="#BF6128" stroke-width="2" stroke-miterlimit="10" stroke-linecap="round" stroke-linejoin="round"/>
<path d="M26.9622 15.713L18.3372 7.68799L9.63717 15.713" stroke="#BF6128" stroke-width="2" stroke-miterlimit="10" stroke-linecap="round" stroke-linejoin="round"/>
<path d="M15.9622 22.0376V16.0376" stroke="#BF6128" stroke-width="2" stroke-miterlimit="10" stroke-linecap="round" stroke-linejoin="round"/>
<path d="M20.9622 22.0376V16.0376" stroke="#BF6128" stroke-width="2" stroke-miterlimit="10" stroke-linecap="round" stroke-linejoin="round"/>
<path d="M20.9622 16.0376H15.9622" stroke="#BF6128" stroke-width="2" stroke-miterlimit="10" stroke-linecap="round" stroke-linejoin="round"/>
</svg>
