<svg width="39" height="46" viewBox="0 0 39 46" fill="none" xmlns="http://www.w3.org/2000/svg">
<path d="M26.5 14.4874H3.25C2.05 14.4874 1.075 13.5124 1.075 12.3124V3.3874C1.075 2.1874 2.05 1.2124 3.25 1.2124H26.5C27.7 1.2124 28.675 2.1874 28.675 3.3874V12.3124C28.675 13.5124 27.7 14.4874 26.5 14.4874Z" stroke="#BF6128" stroke-width="2" stroke-miterlimit="10" stroke-linecap="round" stroke-linejoin="round"/>
<path d="M28.675 5.7124H32.5C35.275 5.7124 37.6 7.9624 37.6 10.8124V16.1374C37.6 18.9124 35.35 21.2374 32.5 21.2374H19.075C17.95 21.2374 17.05 22.1374 17.05 23.2624V28.9624" stroke="#BF6128" stroke-width="2" stroke-miterlimit="10" stroke-linecap="round" stroke-linejoin="round"/>
<path d="M28.675 9.38745H31.9C33.025 9.38745 33.85 10.2875 33.85 11.3375V15.4625C33.85 16.5875 32.95 17.4125 31.9 17.4125H18.175C15.475 17.4125 13.375 19.5875 13.375 22.2125V28.8125" stroke="#BF6128" stroke-width="2" stroke-miterlimit="10" stroke-linecap="round" stroke-linejoin="round"/>
<path d="M15.1 44.7874C12.7 44.7874 10.75 42.8374 10.75 40.4374V30.5374C10.75 29.6374 11.5 28.9624 12.325 28.9624H17.8C18.7 28.9624 19.375 29.7124 19.375 30.5374V40.4374C19.45 42.8374 17.5 44.7874 15.1 44.7874Z" stroke="#BF6128" stroke-width="2" stroke-miterlimit="10" stroke-linecap="round" stroke-linejoin="round"/>
<path d="M1 5.93779H3.4C4.3 5.93779 5.05 6.68779 5.05 7.58779C5.05 8.56279 5.875 9.38779 6.85 9.38779C7.825 9.38779 8.65 8.56279 8.65 7.58779V7.06279C8.65 6.01279 9.475 5.11279 10.6 5.11279C11.65 5.11279 12.55 5.93779 12.55 7.06279V9.53779C12.55 10.8128 13.525 11.7878 14.8 11.7878C16.075 11.7878 17.05 10.8128 17.05 9.53779V8.71279C17.05 7.66279 17.875 6.76279 19 6.76279C20.05 6.76279 20.95 7.58779 20.95 8.71279V10.1378C20.95 11.0378 21.625 11.7128 22.525 11.7128C23.425 11.7128 24.1 11.0378 24.1 10.1378V9.16279C24.1 7.88779 25.15 6.83779 26.425 6.83779H28.675" stroke="#BF6128" stroke-width="2" stroke-miterlimit="10" stroke-linecap="round" stroke-linejoin="round"/>
<path d="M9.175 23.3374C9.175 24.8374 7.975 26.0374 6.475 26.0374C4.975 26.0374 3.775 24.8374 3.775 23.3374C3.775 21.8374 6.475 18.5374 6.475 18.5374C6.475 18.5374 9.175 21.8374 9.175 23.3374Z" stroke="#BF6128" stroke-width="2" stroke-miterlimit="10" stroke-linecap="round" stroke-linejoin="round"/>
</svg>
