<svg width="40" height="40" viewBox="0 0 40 40" fill="none" xmlns="http://www.w3.org/2000/svg">
<rect width="40" height="40" rx="8" fill="#2C2C2E"/>
<path fill-rule="evenodd" clip-rule="evenodd" d="M8.35611 18.4709C15.6039 15.3661 20.4368 13.3193 22.855 12.3304C29.7594 9.50685 31.1941 9.01637 32.1292 9.00017C32.3349 8.99661 32.7947 9.04673 33.0926 9.28437C33.3441 9.48504 33.4133 9.75611 33.4464 9.94636C33.4795 10.1366 33.5208 10.57 33.488 10.9087C33.1138 14.7739 31.4949 24.1538 30.6713 28.483C30.3228 30.3148 29.6365 30.929 28.9722 30.9891C27.5284 31.1197 26.4321 30.051 25.0337 29.1497C22.8455 27.7394 21.6094 26.8615 19.4854 25.4853C17.0307 23.8949 18.622 23.0208 20.0209 21.5922C20.387 21.2184 26.7483 15.5294 26.8714 15.0134C26.8868 14.9488 26.9011 14.7082 26.7557 14.5812C26.6103 14.4541 26.3958 14.4976 26.2409 14.5321C26.0215 14.5811 22.5259 16.8528 15.7541 21.3472C14.7618 22.0171 13.8631 22.3435 13.0579 22.3264C12.1702 22.3075 10.4626 21.8329 9.19322 21.4272C7.63624 20.9296 6.39879 20.6665 6.50654 19.8214C6.56267 19.3812 7.17919 18.931 8.35611 18.4709Z" fill="white"/>
</svg>
